/* XPM */
static char *Bone_meat_21694181682[] = {
/* columns rows colors chars-per-pixel */
"64 64 221 2 ",
"   c #1F160B",
".  c #1D1307",
"X  c #2F0C00",
"o  c #251503",
"O  c #2C1500",
"+  c #251A05",
"@  c #2D1A03",
"#  c #231609",
"$  c #251A0B",
"%  c #2C1C0B",
"&  c #2D1509",
"*  c #331500",
"=  c #3A1600",
"-  c #331A02",
";  c #3C1B00",
":  c #331D0B",
">  c #2C1E11",
",  c #271C12",
"<  c #2E210C",
"1  c #35220C",
"2  c #3D2105",
"3  c #2F2213",
"4  c #362514",
"5  c #33261A",
"6  c #3B2C1B",
"7  c #392615",
"8  c #3E3625",
"9  c #392D21",
"0  c #431C00",
"q  c #431700",
"w  c #452002",
"e  c #4A2100",
"r  c #4E2A06",
"t  c #512200",
"y  c #542A04",
"u  c #5B2B02",
"i  c #5B2F0B",
"p  c #412E17",
"a  c #49341B",
"s  c #5D330D",
"d  c #6E2F00",
"f  c #69340B",
"g  c #6B3B0F",
"h  c #62350B",
"j  c #773B0D",
"k  c #6B3D12",
"l  c #643D16",
"z  c #753B13",
"x  c #47392A",
"c  c #533E2A",
"v  c #4A3E30",
"b  c #6F4016",
"n  c #774215",
"m  c #7C4313",
"M  c #7B491E",
"N  c #78441B",
"B  c #4C422B",
"V  c #4C4334",
"C  c #4B463B",
"Z  c #564636",
"A  c #5B513F",
"S  c #59472F",
"D  c #7D4C23",
"F  c #594F43",
"G  c #5D5144",
"H  c #5E574B",
"J  c #62564A",
"K  c #63594C",
"L  c #6B5C4C",
"P  c #605543",
"I  c #705E48",
"U  c #6A5D54",
"Y  c #6C6253",
"T  c #6B6158",
"R  c #726454",
"E  c #7C6C5D",
"W  c #75695A",
"Q  c #726248",
"!  c #776C62",
"~  c #7C7569",
"^  c #854E1C",
"/  c #864917",
"(  c #9D4D11",
")  c #98551C",
"_  c #A34F16",
"`  c #A55314",
"'  c #AA5514",
"]  c #AE5916",
"[  c #A6551A",
"{  c #AA551A",
"}  c #A4591C",
"|  c #AB5A1A",
" . c #B15C1C",
".. c #B25817",
"X. c #A7510E",
"o. c #AF601D",
"O. c #B6631D",
"+. c #8B5425",
"@. c #8A5528",
"#. c #8D5A2B",
"$. c #925623",
"%. c #955A2B",
"&. c #9B5B27",
"*. c #915E33",
"=. c #A65D24",
"-. c #B05E22",
";. c #9E642D",
":. c #986437",
">. c #A3622B",
",. c #AD632A",
"<. c #B46423",
"1. c #BB6624",
"2. c #B66925",
"3. c #BC6A26",
"4. c #B56A2B",
"5. c #BD6E2C",
"6. c #B16529",
"7. c #BF702E",
"8. c #B7702E",
"9. c #A06634",
"0. c #AC6B34",
"q. c #AD6E39",
"w. c #A86833",
"e. c #B46E33",
"r. c #BC6E31",
"t. c #B06D39",
"y. c #B57232",
"u. c #BD7233",
"i. c #BC743A",
"p. c #BF793B",
"a. c #B3723B",
"s. c #C0651E",
"d. c #C36C25",
"f. c #C16E2C",
"g. c #CA6F29",
"h. c #C1712F",
"j. c #C9722C",
"k. c #C97122",
"l. c #C16F32",
"z. c #C27231",
"x. c #CA7533",
"c. c #C47539",
"v. c #C2793B",
"b. c #C97836",
"n. c #826F5E",
"m. c #81705E",
"M. c #83776B",
"N. c #887B6C",
"B. c #887C70",
"V. c #8C8275",
"C. c #8C857B",
"Z. c #928577",
"A. c #968B7C",
"S. c #99907F",
"D. c #988D82",
"F. c #999387",
"G. c #A3998E",
"H. c #A1978D",
"J. c #A69D92",
"K. c #AA9E91",
"L. c #ACA49B",
"P. c #A9A49A",
"I. c #B5A999",
"U. c #ABACA6",
"Y. c #BDAFA5",
"T. c #B3ABA6",
"R. c #AFB0AB",
"E. c #BCB5AD",
"W. c #B7B7B3",
"Q. c #BDBBB4",
"!. c #BEBAB5",
"~. c #C4BCB3",
"^. c #C7BFBC",
"/. c #C4C2BC",
"(. c #CCC4BA",
"). c #C7C1B5",
"_. c #D4C8B8",
"`. c #BFC1C0",
"'. c #CDCAC2",
"]. c #C9C8C3",
"[. c #D8CFC5",
"{. c #D3CAC4",
"}. c #D4D2CC",
"|. c #DAD3CC",
" X c #DAD4C7",
".X c #DDDAD6",
"XX c #D8DBD8",
"oX c #E3DDD5",
"OX c #E4DBD4",
"+X c #E4D7CE",
"@X c #DEE3DF",
"#X c #E4E0D6",
"$X c #E5E2DB",
"%X c #EAE4DB",
"&X c #EEEADF",
"*X c #F2E1D2",
"=X c #FDECDA",
"-X c #DEE2E5",
";X c #E6E6E7",
":X c #EBEAE5",
">X c #ECEDEB",
",X c #E9E8E5",
"<X c #F3ECE4",
"1X c #F2EFEA",
"2X c #F8EEE6",
"3X c #ECF2EE",
"4X c #F4F3EE",
"5X c #FAF3ED",
"6X c #FBF1E7",
"7X c #E9EFF1",
"8X c #F5EFF1",
"9X c #EEF2F4",
"0X c #EDF9FC",
"qX c #F4F5F4",
"wX c #FAF6F3",
"eX c #F6F8F6",
"rX c #FAF9F6",
"tX c #F3F6F9",
"yX c #FAF7FA",
"uX c #F7F9F8",
"iX c #FAFCFB",
/* pixels */
"uXuXuXuXuXuXuXuXuXuXuXuXuXuXuXuXuXuXuXuXuXuXuXuXuXuXuXuXuXuXuXuXuXuXuXuXuXuXuXuXiX4XiXqXuXrXtXiXuXqXrXiXtXiXqX4XiXiXqXuXuXuXqXuX",
"uXuXuXuXuXuXuXuXuXuXuXuXuXuXuXuXuXwXuXrXuXuXuXuXuXuXuXwXuXuXuXwXuXuXuXuXuXuXuXuXuXqXiXuXuXuXuXuXqXiX9XiXuX9XiXiXqXuXiXrXuXuXuXuX",
"uXuXuXuXwXuXuXuXuXuXuXuXwXuXuXuXuXuXuXuXuXuXuXuXuXuXuXuXeXuXuXuXuXuXuXuXrXeXuXuXeXuXuXiXuXuXtX0XiXiXiXqXiXtXtXtXuXuXuXuXuXuXiXuX",
"uXuXuXuXuXuXuXuXuXuXuXwXrXuXuXuXuXuXuXeXuXuXuXuXuXuXuXuXuXuXuXuXuXuXuXrXuXuXuXuXuXuX0XtXuXuXuXuXuX5X|.[.OXiXiXiXiXuXuXuXqXuXiXuX",
"uXuXuXuXuXuXuXuXuXuXuXuXuXuXuXuXuXuXuXuXuXuXuXuXuXuXuXuXuXuXuXeXuXuXwXuXuXuXuXuXuXuXtXuXuXuXuXuX+XG 4 o < T |.rXeXqXuXiXuXqXuXrX",
"uXuXuXuXuXwXuXuXuXuXuXuXuXuXuXuXuXuXuXuXuXuXuXuXuXuXuXuXuXuXuXuXrXuXuXuXuXuXuXuXuXuXuXuXuXuXuX}.5 % A.I.N.$ x *XiXiXuXuXiXuXeXuX",
"uXuXuXuXuXuXuXuXuXuXuXuXuXuXuXuXuXuXuXuXuXuXuXuXuXuXuXuXrXuXuXuXuXuXuXuXuXuXuXuXuXuXuXuXtXeX5X~ o (.iXrX4X~.$ I 3XiXuX9XuXiXqXuX",
"uXuXuXuXuXuXuXuXuXuXuXuXuXuXrXuXuXuXuXuXrXeXuXuXuXuXrXuXuXuXuXuXuXuXuXuXeXuXuXuXuXuXeXiXeXwX<X$ ~ rXqXiXiXqXS.@ `.>XiXeXiXuXqXiX",
"uXuXuXuXrXuXuXuXuXuXuXuXuXuXuXrXuXuXuXuXwXuXuXuXuX9XiXuX4XuXiXeXwXiXuXqXiXuX9XiXuXqXiXtXiXqX%X% A.5XuXiXeXrX|.  - 1 L.tXwXiXiXqX",
"uXuXuXuXuXuXuXuXuXuXuXuXuXuXuXuXuXeXuXuXuXuXrXuX0XiXtXuXiXeXiXtX9XiXiXeXuXiXiX0XtXiXrXuXeXiX4XV 4 (.qXtXuX4X$XC.H.A o ^.iX>XiXwX",
"uXuXuXuXuXuXuXwXuXwXuXuXuXuXuXuXuXuXuXuXuXuXuXuXiXuX4XiXiXtXuXiXiX9X,X$X X(.}.:XuXqXwXrXtXiXiX}.@ > .XtXuXiXiX4XiXOX7 E iXtXuXiX",
"uXuXuXuXuXuXuXuXuXuXuXuXuXuXuXuXuXuXuXuXuXuXuXuXwX4XiX9XeXuXiX:XR.T 4 @ - * - - 8 F._.qXiXtXwXI.@ ! uXuXuXeXeXuX0X1Xc p iXiX3XiX",
"uXuXuXuXuXeXuXuXuXuXuXuXuXuXuXeXuXrXuXuXuXuXuXuXiXiXuX0XiX4XG.3 * q u n ^ ^ M g w - @ H W.rXT.% G <XqXiXtXiXtXuXtXrXa a yXtXuXiX",
"rXuXuXuXuXuXuXuXuXuXrXuXuXuXuXuXuXuXuXuXuXuXuXuXeXeXuXqX|.Z 2 y $.w.p.u.7.u.u.r.i.&.N = % G < B OXqXiXiXiX>XwXiXtX~.& S.qXiXiXqX",
"uXuXuXuXuXuXuXuXuXuXuXuXuXwXuXuXeXuXuXuXrXuXuXuX0XuXeX(.p 0 m e.8.7.7.h.z.f.f.l.l.b.u.0.g - @ I.uXiXiX8X|.F R I.N.+ 6 ,XuXtXtXuX",
"uXeXuXuXuXuXuXuXuXuXuXuXuXuXuXuXuXuXuXuXuXuXuXuXrXeX}.3 - #.p.d.j.2.o.2.z.z.3.5.y.O.k.k.3.*.q & U.iX9X^.p o 1 o - Q #XtXwXiXiXuX",
"uXuXuXuXuXrXuXuXuXuXuXuXuXuXuXuXiXqXwXuXwXeXiXuX4XuXC 0 =.u.i.3.u.5.5.h.7.4.<.| r.f.<.f.z.y.;.t + Y.K.# v (.,XXX>XtXiXeXeXeXtXiX",
"uXuXuXuXuXuXuXuXuXuXuXwXuXuXuXuXuXuXyXiXtXuX4XiXiXP.% m i.5.3.x.h.7.3.7.h.u.3.3.5.3.O.f.5.u.p.&.w - % J OXwXrXuXqXeXiXeXeXeXuXwX",
"wXuXuXuXuXuXuXuXuXuXuXuXrXuXuXuXeXyXuXeXiXuXiXtX:X6 0 i.7.r.z.O.h.7.7.5.7.7.h.z.u.7.5.j.f.5.l.x.:.0 * [.eXuXuXuXuXuXuXeXuXiXuXtX",
"uXuXuXuXuXuXuXuXuXuXuXuXuXuXuXuXuXrXeXtXtXtXeXeXU.O ) 7.3.u.<.] 7.7.h.h.7.7.7.5.3.7.z.l.5.f.5.d.r.$.q J uXiXuXuXuXuXeXeXuXuXuXiX",
"uXuXuXuXuXrXuXuXuXuXuXuXuXuXuXuXuXiXuXuX9XiX>XuXV 0 e.d.u.v.4.x.5.7.z.7.z.h.7.7.h.h.7.4.u.b.5.7.d.c.n * F.0X9XiXuXqXuXuXuXuXuXuX",
"uXuXuXeXuXeXuXuXuXuXuXuXuXuXuXuXuXuXuXuXuXqXiXQ.O M z.z.r.r.u.5.7.h.7.7.5.7.z.z.x.h.z.r.u.u.5.u.d.5.y.u 5 }.tXtXuXuXuXiXuXeXeXuX",
"wXuXuXuXuXuXuXuXuXuXuXuXuXuXuXuXuXuXeXeXrX4X2XH = t.3.1.c.z.7.u.7.z.7.5.5.5.5.5.f.5.5.z.h.5.5.c.z.5.b.&.X B.iXuXuXuXuXuXuXeXwXiX",
"uXuXuXuXuXuXuXuXuXuXuXuXuXuXuXuXuXuXeXuXrXrXC.< N e.j.z.5.d.x.e.5.h.7.7.h.z.z.5.r.h.5.j.f.f.l.r.i.5.1.u.g o oXtXuXeXtXuXiXuXuXuX",
"uXuXrXuXuXuXuXuXuXuXwXeXiXuX9XrXuXiXiXyX1XM.; i 3.3.u.z.7.z.z.7.5.h.h.7.h.7.5.7.3.z.u.5.h.h.5.h.4.| 3.5.;.= J.0XuXuXuXuXuXuXuXuX",
"uXuXuXuXuXuXuXrXuXuXiXqX9XuXiXiXqXuXtX,XT O k t.7.<.2.7.7.7.7.7.u.h.5.5.h.7.7.h.7.7.h.7.7.7.5.h.-.] ] 5.a.0 V iXuXuXuXwXuXuXuXuX",
"uXuXuXuXuXuXuXuXuXiX4XiXiXqXrX1XiXuX'.5 - M 4.j.7.3.3.u.3.6.3.z.h.5.2.<.5.7.5.7.z.5.5.h.5.5.7.u.{ [ X.3.i.k o $XuXuXuXuXuXuXuXuX",
"uXuXuXuXuXuXuXuXiX3XrXwXiXiXwXiX>XD.O e +.0.z.d.7.h.z.z.3.<.8.z.h.5.<.2.5.7.7.7.h.5.7.h.5.h.z.3.{ ` ' 3.u.+.2 /.uXuXuXuXuXuXuXuX",
"uXuXuXuXuXuXuXuX0XiXqXiXiX9X9X.XK * u =.z.7.z.5.z.7.7.7.5.7.z.7.z.7.5.5.7.h.5.z.h.5.z.h.5.z.h. .` { ' 1.h.$.* ).uXuXrXwXuXuXuXuX",
"uXuXuXuXuXwXuXuXrXiX7XiXiXiXE.% * M y.d.j.h.4.i.5.7.z.7.7.h.z.3.5.h.z.7.z.7.5.7.7.h.z.5.f.z.1.' ' ` [ 1.3.%.O Q.uXuXuXuXwXuXuXuX",
"uXuXuXuXuXuXuXuXeXqXiXiX4XD.; q &.p.3.j.3.5.4.c.3.u.z.z.3.3.7.7.5.h.7.5.h.7.5.7.5.u.z.f.h.5. .` { ` | f.3.%.* `.uXuXuXuXuXuXuXuX",
"uXuXuXeXuXrXuXuXiXiXtXeXD.o h 0.h.f.h.r.} u.x.d.7.3.3.u.u.h.z.z.7.z.7.7.7.7.5.z.7.7.5.f.l. .` ' X.[ [ l.b.m @ XXuXuXuXuXuXuXuXuX",
"uXuXuXuXwXuXuXuX0XiXqXT.- d 4.u.h.5.5.h.h.7.z.5.4.3.5.h.h.z.h.7.7.z.7.5.7.z.z.7.u.z.z.1.| ' ' ` { { 3.f.u.u @ 9XuXuXuXuXuXuXuXuX",
"uXuXuXuXrXuXuXuXiX5X&X5 0 0.b.r.7.z.5.7.7.7.5.7.5.5.5.7.7.7.5.5.7.7.h.h.7.5.7.7.5.f.<.| ` | { ` ` <.z.4.>.q M.iXuXuXuXuXuXuXuXuX",
"uXuXuXuXuXuXuXuXtXqXG.* *.l.d.r.7.7.7.7.7.7.h.h.z.h.7.7.5.7.7.7.7.7.7.z.7.5.5.z.h. ._ } { ( ( | o.j.f.e.M o (.qXuXuXuXuXuXuXuXuX",
"uXuXuXuXuXuXuXuX0XrX7 e t.f.j.z.5.z.7.z.5.7.h.u.z.7.7.7.7.h.7.z.7.7.7.5.5.f.7.5. .| ` [ } {  .<.x.O.z.9.* K iXiXuXuXuXuXuXuXuXuX",
"uXuXuXuXuXuXuXuXqX$X@ n z.d.1.| 5.h.z.7.5.7.7.7.5.5.h.7.7.7.h.7.5.7.z.5.z.z.5.<.` ' | | ..<.d.d.7.z.>.u o }.3X4XuXuXuXuXuXuXuXuX",
"uXuXuXuXuXuXuXuXuXQ.- $.f.d.5.z.5.z.7.5.7.7.7.3.5.7.7.7.7.7.5.5.5.h.z.f.z.5. .' } ` | 1.l.z.u.u.t.+.t * P.uXuXiXuXwXuXuXuXuXuXuX",
"uXuXuXwXuXuXuXuXiXQ.o %.5.h.u.<.7.7.z.7.7.z.5.2.5.z.7.h.7.5.5.7.7.h.u.h.f. .] ` [ <.f.f.z.v.q.@.i ; 4 W.uXuXqXeXuXuXuXuXuXuXuXeX",
"rXuXuXuXuXuXuXuXwX~.: $.f.z.u.z.5.h.7.5.h.z.5.<.7.7.7.5.7.7.7.h.z.5.5.h.1.] ` { 3.f.f.l.,./ y ; - V.-XiXtX5XrXiXuXuXuXeXuXuXuXuX",
"uXuXuXuXuXuXuXuX9X}.; ^ r.h.5.u.7.h.7.c.z.3.u.u.7.7.h.7.7.7.7.h.5.z.z.r._ ` | 3.g.e.:.l - + x F.,X3XuXiXuXuXuXuXuXuXuXuXuXuXuXrX",
"uXuXuXuXuXuXwXuXtX;X@ k u.f.z.u.l.u.j.2.3.z.5.u.h.7.7.7.7.7.7.7.z.5.3.{ { { <.5.i.j ; * L ).:XwX9XuXiXuXuXrXuXuXuXuXuXwXuXuXuXuX",
"uXuXuXuXuXuXuXuXiXiXV ; 0.j.3.u.r.z.3.h.h.5.h.c.u.h.7.7.h.7.h.7.5.4.<.` ] 3.5.i.b * R |.tXuXiXuXiXiXuXuXeXuXuXuXuXuXuXuXuXuXuXuX",
"uXuXuXuXuXuXuXuXuXiXU.- $.x.j.8.8.z.7.u.b.z.7.2.3.h.z.7.5.5.7.z.l.<.` ' ..b.y.) @ W qX9XiX0XuXeXuXuXuXuXuXuXuXqXuXuXuXuXuXuXuXuX",
"uXuXeXuXuXuXuXuXrXeX@X@ u ,.j.3.7.6.^ d z ;.u.f.3.u.7.7.5.r.f.5.<.` [ | 1.z.q.u 4 #X9XiXiXiXuX4XeXuXuXuXuXuXuXuXuXuXuXuXuXuXuXuX",
"uXuXuXuXuXuXuXuX5XiX4XC.; %.u.h.8./ ; < @ ; ^ l.z.7.7.7.z.x.f.1.` ` | 5.f.v.D O L.wXiX9XuXqX5XiXuXuXuXuXeXuXrXiXuXuXrXuXuXuXuXuX",
"uXwXuXuXuXuXuXrXiXrXrX%X5 w w.v.+.; H XX].v = ^ 8.h.5.h.7.f.1.| ] | } f.z.,.; V 4XqXtXuXiXuXiXqXuXuXuXuXuXeXuXuXuXuXwXuXuXuXuXuX",
"uXuXuXuXuXuXuXuX0XqXrXiXR.% f ) @ x .XiX9X$XG @ 6.3.z.5.4.<.{ _ X.' r.4.l./ * W.iXuXtXuXuXqXiXtXuXuXuXuXuXuXuXuXuXuXuXuXuXuXeXuX",
"uXuXuXuXiXqXuXuXiXuXtXiXqXV.O * , |.>XiXuXtXI.O ) r.r.{ X.' { _ )  .d.h.;.; F 9XuXuXuXuXuXuXwXuXuXuXuXuXuXuXuXuXuXuXuXuXuXuXuXuX",
"eXuXuXeXiXiXeXuXiX9XiXiXuX#X> @ E.wXiXtXuX}.4 ; -.c.l.{ {  .{ _ | 3.d.u.k @ ~.iXuXuXuXuXuXuXuXuXuXuXuXwXuXwXuXuXrXuXuXuXuXuXeXuX",
"uXiXqXqX4XiXuXqXuXiX5XwX5XV.  J.uXiX9XiX}.p = :.z.5.| ` ` ` ` ] O.d.i.*.* E uXuXuXuXuXuXuXrXuXuXuXuXuXuXuXuXuXuXuXuXuXuXuXuXrXuX",
"uXuXuXiXwXeX5X}.D.! I n.W $ Z.2XiXuXuX#XB ; $.e.f.j.5.| ' ' ' ' d.5.q.0 % $XiXuXuXuXuXuXuXuXuXuXuXuXuXuXuXuXuXuXuXuXuXuXuXuXuXuX",
"qXiXrX4XiXrXC., 3 o @ - & L <X5XtX4X%XZ O @.u.k.5.u.u.4.-.| <.c.5.a.e & /.qXtXuXuXuXwXuXuXuXuXuXuXuXuXuXuXuXuXuXuXuXuXrXuXuXuXuX",
"iXuXuXiX4XE.5 E {.1XqX:XoX3XuXtXeX2XH < 2 g $.z.7.8.3.d.h.7.8.8.@.e o T.4XqXiXiXuXuXuXuXuXuXuXeXuXuXuXuXuXuXuXuXuXuXuXuXuXuXuXuX",
"iXqXuXiXwXV.$ *XiXiXtXqXiXtXtX0X2XY . P.E - ; k &.e.b.f.f.c.=.j - 1 Q.iXuXiX3XqXuXuXuXuXeXuXuXuXuXuXuXrXuXuXuXuXuXuXuXuXuXuXuXeX",
"uXuXuXqXrXY % =XuX9XrXiXeXwXiX7XE + H.rXqX].Y @ < - r l s 0 o % W #XtXuXuX4XiXuXuXuXuXuXuXuXuXuXuXuXuXwXuXuXuXuXuXuXuXwXuXuXuXuX",
"uXrXuXqXuX~ > *XiXuXwX/.7X0XuXP.- Z.uXiXuXtXiXXXK.K % o % V A. XuXuXuXuXuXuXuXuXuXuXrXuXuXuXuXuXuXuXrXeXuXuXuXuXuXuXuXwXuXuXuXuX",
"uXwXuXrX5XE.. I.@X_.m.! rXiXrX(.o I.wXiX9XtXiXuXwXwX5X2X5XwXwXeXuXuXuXuXuXuXuXuXuXuXuXuXuXuXuXrXuXuXuXuXuXuXuXuXuXuXuXuXuXuXuXuX",
"eXuXqXtXiX4XG $ < @ @ I.eXiXtX;Xo Z.wXuXiXuXeXiXiXiXuXeXwXiXuXuXuXuXuXwXuXuXuXuXuXuXuXuXuXuXuXuXuXuXuXuXuXuXuXuXuXuXuXuXuXuXuXuX",
"uXiXuXqXiX4X%XL.V.L < (.iXiXiX-X1 B.rXqXiXtXiX9XiX9XeXiXrXeX0XeXuXuXuXuXwXuXuXuXuXuXuXuXuXuXuXuXuXuXuXuXuXuXuXrXuXuXuXuXrXuXuXuX",
"iXuXtXuXiXuXwXeXwX[.# F.5X5X&XF.# ~.wXrXuXqXiXuXuXeXeXqXqXwXuXtXuXuXuXuXuXuXuXuXuXuXuXuXrXuXuXuXuXuXuXuXuXuXuXuXuXuXuXuXuXuXuXuX",
"eXuXiXeXuXuXrXuXyX1XT o 1 S 1 o ! <XuXuXuXiX0XuXtXiXtXuXtXiXiXyXuXuXuXrXuXuXuXuXuXuXwXuXuXuXuXuXuXuXwXuXuXuXuXuXuXuXuXuXuXuXuXuX",
"iX9XeXuXiXtXiX9XwXyX4XI.Z $ R I.>XiXiX9XeXuXeXuXiXuXiXiXiXeXtXiXuXuXuXwXuXuXuXuXeXuXuXuXuXuXuXuXuXuXuXuXuXwXuXuXuXuXuXuXrXeXuXuX",
"qXuXuXuXuXuXtXiXuXiX9XrXiXrX9XtXtXiX9XuXiX5XiXuXqX0XeXeXeXeXwXrXuXuXuXuXuXuXuXuXuXuXuXuXuXuXuXuXuXuXuXuXuXuXuXuXeXuXuXuXuXuXuXuX"
};
