/* XPM */
static char *Bone_meat1694784103[] = {
/* columns rows colors chars-per-pixel */
"62 64 213 2 ",
"   c None",
".  c #020100",
"X  c #0A0301",
"o  c #0D0A05",
"O  c #110401",
"+  c #130904",
"@  c #1B0D05",
"#  c #1B0300",
"$  c #1A120A",
"%  c #17100A",
"&  c #2D0A01",
"*  c #270601",
"=  c #370C03",
"-  c #27170A",
";  c #3E1002",
":  c #311B0B",
">  c #211A10",
",  c #36281A",
"<  c #2E2316",
"1  c #3B2E21",
"2  c #461303",
"3  c #4E1603",
"4  c #591905",
"5  c #631D05",
"6  c #691C05",
"7  c #701E05",
"8  c #482E0F",
"9  c #482B19",
"0  c #522D19",
"q  c #4F3211",
"w  c #58341D",
"e  c #52200A",
"r  c #6D2106",
"t  c #7C2506",
"y  c #7A2609",
"u  c #742206",
"i  c #742D12",
"p  c #63371F",
"a  c #433524",
"s  c #4D3E2A",
"d  c #5A3C25",
"f  c #6F481B",
"g  c #7A4E1D",
"h  c #54462F",
"j  c #6F4A30",
"k  c #795F42",
"l  c #766447",
"z  c #842307",
"x  c #8B2507",
"c  c #852408",
"v  c #8B2608",
"b  c #8C2A09",
"n  c #842B0A",
"m  c #922A07",
"M  c #942A09",
"N  c #9B2D0A",
"B  c #902708",
"V  c #9C320C",
"C  c #92300B",
"Z  c #852F13",
"A  c #A22F0B",
"S  c #A4320D",
"D  c #AA350E",
"F  c #A7380F",
"G  c #AD390E",
"H  c #B23A0E",
"J  c #BB3D0D",
"K  c #AC3610",
"L  c #A83812",
"P  c #B33C10",
"I  c #BA3F12",
"U  c #C03F0D",
"Y  c #BF410F",
"T  c #BB4012",
"R  c #8B5722",
"E  c #865535",
"W  c #955937",
"Q  c #89532B",
"!  c #A55E38",
"~  c #BB5E25",
"^  c #976627",
"/  c #8F603E",
"(  c #9D603B",
")  c #AC722D",
"_  c #B07134",
"`  c #D3490F",
"'  c #D1470F",
"]  c #C64913",
"[  c #C84512",
"{  c #D54B11",
"}  c #D94E11",
"|  c #D44710",
" . c #D35414",
".. c #DC5311",
"X. c #DD5D15",
"o. c #D5581B",
"O. c #C94B12",
"+. c #E15512",
"@. c #E35B14",
"#. c #E75E16",
"$. c #DD6218",
"%. c #EB6217",
"&. c #E36219",
"*. c #ED6519",
"=. c #E56B1B",
"-. c #ED6B1B",
";. c #F16D1C",
":. c #EC721E",
">. c #E7701E",
",. c #F2721E",
"<. c #CB5624",
"1. c #E66A22",
"2. c #EC7521",
"3. c #EC7B22",
"4. c #EA772F",
"5. c #F47620",
"6. c #F47C22",
"7. c #F97D21",
"8. c #886A49",
"9. c #9A6A45",
"0. c #997D59",
"q. c #8B7956",
"w. c #A66B44",
"e. c #BA6D41",
"r. c #B46F47",
"t. c #A97249",
"y. c #B37249",
"u. c #B87046",
"i. c #AB7D56",
"p. c #C27245",
"a. c #CB7B4E",
"s. c #C67448",
"d. c #C77E51",
"f. c #C68837",
"g. c #D88838",
"h. c #D9973E",
"j. c #ED8324",
"k. c #EE8A29",
"l. c #F58224",
"z. c #F98525",
"x. c #FA8927",
"c. c #F38C2A",
"v. c #FA8D29",
"b. c #F3852B",
"n. c #F7942D",
"m. c #FA932D",
"M. c #FB992F",
"N. c #E68938",
"B. c #F28E32",
"V. c #F68B38",
"C. c #E9943D",
"Z. c #F29234",
"A. c #FB9430",
"S. c #FB9A31",
"D. c #F89A39",
"F. c #FCA43D",
"G. c #FDAA3F",
"H. c #BC8457",
"J. c #AD956B",
"K. c #B7966B",
"L. c #B19167",
"P. c #BEA779",
"I. c #CE8253",
"U. c #CD8C5C",
"Y. c #C5885A",
"T. c #D48556",
"R. c #D38C5C",
"E. c #D78A5A",
"W. c #F59E41",
"Q. c #E08F5E",
"!. c #EEA142",
"~. c #FBA342",
"^. c #FDAB44",
"/. c #F6A744",
"(. c #FEB246",
"). c #FFBC4D",
"_. c #FFB548",
"`. c #CD9162",
"'. c #C79667",
"]. c #DA9563",
"[. c #DA9B68",
"{. c #E19C69",
"}. c #E39865",
"|. c #DFA16C",
" X c #C6A577",
".X c #D4A572",
"XX c #DCAB76",
"oX c #D7AB79",
"OX c #DCB27D",
"+X c #EBAD76",
"@X c #E7AA75",
"#X c #EEB57C",
"$X c #EFB87E",
"%X c #E8B27B",
"&X c #F0B77E",
"*X c #F0B87E",
"=X c #E7A36E",
"-X c #FFC14F",
";X c #FFC251",
":X c #CBB281",
">X c #DCB885",
",X c #ECBB83",
"<X c #E6BE88",
"1X c #F1BB82",
"2X c #E3C38D",
"3X c #EBC38B",
"4X c #EAC88F",
"5X c #ECCD95",
"6X c #ECC790",
"7X c #EED399",
"8X c #EBD095",
"9X c #F0D59B",
"0X c #F3C087",
/* pixels */
"                  . .                                                                                                       ",
"                p `.'.a                                                                                                     ",
"              O y.+X+XK.                                                                                                    ",
"  X h s o . . E d.+X+X,X%                                                                                                   ",
"  9.[.1X%X.XY.s.a.+X%XoXX                                                                                                   ",
"X ! [.#X1X&X+X@XT.{.+X8.                                                                                                    ",
". ! d.+X&X&X&X&X+XQ.%X,                                                                                                     ",
"  Q s.T.}.}.=X&X&X%X[.a                 X - @ .                                                                             ",
"  > W w.y.d.E.{.+X1X,X0.            e <.4.V.V.C.g.R X                                                                       ",
"          . E T.{.,X5X>X<         i $.1.2.1.>.:.b.D.g.f                                                                     ",
"              w `.@X6X5X0.      y o.=.:.3.3.2.3.2.3.B.W.R                                                                   ",
"                , '.XX6X2Xa   6 ] *.:.:.3.j.l.b.l.3.3.B.~.g                                                                 ",
"                  9 `.[.6X X# S o.:.5.l.x.v.v.v.m.x.j.3.Z.C.:                                                               ",
"                    d Y..X>Xj V &.:.6.x.x.v.F.F.S.m.n.k.3.F.)                                                               ",
"                      8.y.t.w G *.,.7.x.x.(.).).).^.A.m.j.Z.!.:                                                             ",
"                  . 2 4 w 0 y  .-.7.z.x.A.).).-X-X).G.M.n.j.F.^                                                             ",
"                5 M A N M N ] #.5.6.z.x.A.).).).-X-X-XM.M.j.Z.f.                                                            ",
"              u D N B M A O.@.*.5.7.7.x.x.^.).).;X-X-XM.M.c.Z.!.+                                                           ",
"            5 K N v c N { ..*.;.;.5.7.z.x.A._.).-X-X).M.M.M.k.^.8                                                           ",
"          & F S B c x U ..+.*.*.;.5.7.z.z.x.m.^.(.(.S.M.S.M.c.^.g                                                           ",
"          n K N x z x | } @.*.%.-.;.7.5.l.x.v.v.m.M.S.M.S.S.n.F.^ .                                                         ",
"        . F K B x z M | } @.%.*.;.-.,.6.x.x.v.v.m.-X-XG.M.M.M.D._.f.-                                                       ",
"        O P S B x z N } | +.%.%.*.*.,.5.z.x.v.v.m.(.-X-XM.S.M.n.F.^.h.f                                                     ",
"        # P D M x x B U } +.#.%.*.;.;.5.6.z.z.v.v.M.G.F.S.S.S.M.D.B.F.(.f.q                                                 ",
"        . G G M v z x J | } +.#.*.;.;.;.,.z.x.v.m.m.m.M.A.M.S.M.n.n.k.Z.(./.^ .                                             ",
"          C G N B z z N | } } ..%.%.;.;.,.,.z.,.x.v.m.m.m.M.S.S.M.n.M.k.k.D.^._ X                                           ",
"          r H S B x z t J | ` ..#.%.*.;.,.,.,.z.x.x.m.m.M.M.M.M.M.M.M.M.c.j.n.^.)                                           ",
"          O S G V B z c m J } } +.#.*.;.,.,.,.,.x.x.v.x.v.m.m.M.M.M.M.M.S.c.j.c.~.^                                         ",
"            5 P S N v x x v H ` } +.#.*.;.;.,.,.l.x.x.v.n.n.M.M.M.M.M.m.A.A.c.3.B.W.8                                       ",
"            X C H S N m v v v V U } } +.*.;.,.,.6.6.z.x.v.v.m.M.m.m.M.M.A.n.n.j.2.D._                                       ",
"              & G G S N N B v m N J } } +.*.;.,.,.6.7.z.x.m.m.m.m.m.m.m.m.m.m.l.3.b.N..                                     ",
"                2 F H G S N N M B N K } +.+.%.;.,.,.:.z.x.x.x.x.x.m.v.m.m.v.m.c.3.3.C.O                                     ",
"                  & b P H D S N N N A P } ..@.*.;.,.,.5.l.6.x.x.v.v.v.m.v.v.v.l.2.4.N..                                     ",
"                    . 4 V H P L S A N S [ ....@.*.:.,.,.5.6.z.x.x.l.x.x.x.x.x.3.1.1.~                                       ",
"                        . ; n T P K S S D ` } ..%.-.-.,.,.5.6.l.z.x.x.z.x.b.l.=.o.1.i                                       ",
"                              ; Z I K S S [ } ..X.%.*.-.;.:.,.,.-.6.6.l.6.2.=.$. .<.o                                       ",
"                                O N G K A D | | ..@.%.*.%.,.-.,.:.5.,.5.=.$.X.O.T Z                                         ",
"                                  x D A N N J | } ..#.%.*.-.;.-.-.-.*.&.X. .T K L X                                         ",
"                                  u D A N m m U ' ......&.%.*.*.&.&.@. .I K K N =                                           ",
"                                  * G K A v c v U ` } } ..@.X...X... .K S M 6 o                                             ",
"                                    y H S m x z x J { } } } } } ..[ S A t 0 Q 8.                                            ",
"                                    X S G N v z z z V U ` ` ` [ S N N 6 d ( >X5Xq.                                          ",
"                                      2 D D N z c z z x m M m v M N 7 . - 9.'.7X2Xl                                         ",
"                                        ; S G N x z z z z z x B N z .     $ w..X8X>X,                                       ",
"                                          * t G S M v v v v M A B *         + 9.oX7X:X$                                     ",
"                                              ; t S G S A A A u #             $ t.oX7XK.o                                   ",
"                                                  . 3 5 5 3 O                   > i.XX7XJ.o                                 ",
"                                                                                  a H.XX7XJ.%                               ",
"                                                                                    h Y.OX9XP.>                             ",
"                                                                                      j `.>X9X:Xh                           ",
"                                                                                        E `.<X7X2Xl                         ",
"                                                                                        . 9.`.2X7X5XL.1                     ",
"                                                                                          + w.`.2X1X$XXX0.>                 ",
"                                                                                            : y.R.,X$X&X&XOXL.L.K.oX Xl     ",
"                                                                                              0 p.].&X&X&X+X*X1X0X,X$X,Xk   ",
"                                                                                                j s.=X&X&X=X+X&X1X1X$X#X@X> ",
"                                                                                                X ! I.#X*X+XE.{.+X#X&X&XQ., ",
"                                                                                                  0 e.|.$X*X@Xa.T.].[.E.r.+ ",
"                                                                                                  X ! d.#X1X*XR.W W ( E :   ",
"                                                                                                    0 p.@X*X#X[.+           ",
"                                                                                                    0 s.U.*X&X|.>           ",
"                                                                                                    @ e.p.I.T.Y.$           ",
"                                                                                                      w e.u.p.j             ",
"                                                                                                        * 9 @               "
};
