/* XPM */
static char *Exit_boat1694091071[] = {
/* columns rows colors chars-per-pixel */
"64 64 182 2 ",
"   c #573A3E",
".  c #6C3B2B",
"X  c #703523",
"o  c #763D24",
"O  c #7C3821",
"+  c #70342A",
"@  c #79372B",
"#  c #733C2C",
"$  c #7B3B2C",
"%  c #6F3533",
"&  c #6E3C35",
"*  c #663F3B",
"=  c #6F3B3D",
"-  c #703533",
";  c #733C34",
":  c #7B3C34",
">  c #733739",
",  c #733D3A",
"<  c #7B3D3B",
"1  c #5F433F",
"2  c #6C4023",
"3  c #6D432E",
"4  c #72422B",
"5  c #7B412C",
"6  c #6B4334",
"7  c #6C453D",
"8  c #64483D",
"9  c #6E483D",
"0  c #764334",
"q  c #7C4435",
"w  c #76423C",
"e  c #7A433C",
"r  c #7D4C3B",
"t  c #6F3744",
"y  c #6D3D4D",
"u  c #7B3642",
"i  c #743C42",
"p  c #7A3846",
"a  c #723D4F",
"s  c #7C3C4B",
"d  c #1E4A6F",
"f  c #14457F",
"g  c #164A7A",
"h  c #1E4C7D",
"j  c #1D527A",
"k  c #234B7E",
"l  c #264C73",
"z  c #6E4343",
"x  c #6E4940",
"c  c #67414C",
"v  c #754243",
"b  c #7A4343",
"n  c #704149",
"m  c #78434D",
"M  c #833528",
"N  c #813832",
"B  c #843D3C",
"V  c #83472F",
"C  c #804537",
"Z  c #8A4633",
"A  c #80433E",
"S  c #B66F2F",
"D  c #AE6E3E",
"F  c #B46A3B",
"G  c #AF6E46",
"H  c #AE634C",
"J  c #AD6B4B",
"K  c #B56743",
"L  c #BE6642",
"P  c #B26D44",
"I  c #BB6C45",
"U  c #B26D4C",
"Y  c #BB6D4C",
"T  c #AF734E",
"R  c #B27344",
"E  c #BC7245",
"W  c #B4724C",
"Q  c #B9734B",
"!  c #B37B4C",
"~  c #AC6C51",
"^  c #AA6E5B",
"/  c #B36D53",
"(  c #B96C51",
")  c #B06659",
"_  c #B86658",
"`  c #B46B58",
"'  c #A77156",
"]  c #AA7354",
"[  c #A47957",
"{  c #AC725B",
"}  c #A1735C",
"|  c #B57354",
" . c #BD7152",
".. c #B27850",
"X. c #BA7856",
"o. c #B27259",
"O. c #BB735B",
"+. c #AE6D67",
"@. c #AF7464",
"#. c #AF7768",
"$. c #BC7062",
"%. c #BA7A61",
"&. c #B8716D",
"*. c #BE7F76",
"=. c #C36946",
"-. c #C36C4B",
";. c #C16445",
":. c #C4724A",
">. c #C46E53",
",. c #C37155",
"<. c #C07A58",
"1. c #C27563",
"2. c #C57F65",
"3. c #C87D60",
"4. c #D07F64",
"5. c #C17D72",
"6. c #CA7B74",
"7. c #BC895E",
"8. c #B68366",
"9. c #BD8467",
"0. c #BA8D66",
"q. c #B6866D",
"w. c #BC816E",
"e. c #BF8272",
"r. c #BE8C71",
"t. c #BF867B",
"y. c #C38559",
"u. c #CD815D",
"i. c #D6845F",
"p. c #C38264",
"a. c #C98765",
"s. c #C08863",
"d. c #C3836B",
"f. c #CA856B",
"g. c #CA8A6E",
"h. c #C38B6A",
"j. c #C38573",
"k. c #C28973",
"l. c #C58C7A",
"z. c #094781",
"x. c #0D4E82",
"c. c #0A4F88",
"v. c #10468E",
"b. c #124A8B",
"n. c #184B8D",
"m. c #1B4484",
"M. c #06508F",
"N. c #0D5589",
"B. c #15528B",
"V. c #0D4791",
"C. c #094F94",
"Z. c #044D9C",
"A. c #134790",
"S. c #144C93",
"D. c #065195",
"F. c #045C9B",
"G. c #155494",
"H. c #1C5197",
"J. c #13539A",
"K. c #214E8B",
"L. c #215496",
"P. c #0157A2",
"I. c #0A58A3",
"U. c #BC8B84",
"Y. c #B99187",
"T. c #F2FFDD",
"R. c #EBF6EE",
"E. c #EFFFED",
"W. c #FFF5E7",
"Q. c #FFFFE6",
"!. c #FFF5EB",
"~. c #FFFCED",
"^. c #EBFFF1",
"/. c #E6FFFF",
"(. c #ECFDFD",
"). c #FEF6F5",
"_. c #F6FDF6",
"`. c #FEFDF3",
"'. c #F3F5FC",
"]. c #FDF6FD",
"[. c #F4FEFE",
"{. c #FFFFFF",
/* pixels */
"{.{.{.{.{.{.{.{.{.{.{.{.{.{.{.{.{.{.{.{.{.{.{.{.{.{.{.{.{.{.{.{.{.{.{.{.{.{.{.{.{.{.{.{.{.{.{.{.{.{.{.{.{.{.{.{.{.{.{.{.{.{.{.{.",
"{.{.{.{.{.{.{.{.{.{.{.{.{.{.{.{.{.{.{.{.{.{.{.{.{.{.{.{.{.{.{.{.{.{.{.{.{.{.{.{.{.{.{.{.{.{.{.{.{.{.{.{.{.{.{.{.{.{.{.{.{.{.{.{.",
"{.{.{.{.{.{.{.{.{.{.{.{.{.{.{.{.{.{.{.{.{.{.{.{.{.{.{.{.{.{.{.{.{.{.{.{.{.{.{.{.{.{.{.{.{.{.{.{.{.{.{.{.{.{.{.{.{.{.{.{.{.{.{.{.",
"{.{.{.{.{.{.{.{.{.{.{.{.{.{.{.{.{.{.{.{.{.{.{.{.{.{.{.{.{.{.{.{.{.{.{.{.{.{.{.{.{.{.{.{.{.{.{.{.{.{.{.{.{.{.{.{.{.{.{.{.{.{.{.{.",
"{.{.{.{.{.{.{.{.{.{.{.{.{.{.{.{.{.{.{.{.{.{.{.{.{.{.{.{.{.{.{.{.{.{.{.{.{.{.{.{.{.{.{.{.{.{.{.{.{.{.{.{.{.{.{.{.{.{.{.{.{.{.{.{.",
"{.{.{.{.{.{.{.{.{.{.{.{.{.{.{.{.{.{.{.{.{.{.{.{.{.{.{.{.{.{.{.{.{.{.{.{.{.{.{.{.{.{.{.{.{.{.{.{.{.{.{.{.{.{.{.{.{.{.{.{.{.{.{.{.",
"{.{.{.{.{.{.{.{.{.{.{.{.{.{.{.{.{.{.{.{.{.{.{.{.{.{.{.{.{.{.{.{.{.{.{.{.{.{.{.{.{.{.{.{.{.{.{.{.{.{.{.{.{.{.{.{.{.{.{.{.{.{.{.{.",
"{.{.{.{.{.{.{.{.{.{.{.{.{.{.{.{.{.{.{.{.{.{.{.{.{.{.{.{.{.{.{.{.{.{.{.{.{.{.{.{.{.{.{.{.{.{.{.{.{.{.{.{.{.{.{.{.{.{.{.{.{.{.{.{.",
"{.{.{.{.{.{.{.{.{.{.{.{.{.{.{.{.{.{.{.{.{.{.{.{.{.{.{.{.{.{.{.{.{.{.{.{.{.{.{.{.{.{.{.{.{.{.{.{.{.{.{.{.{.{.{.{.{.{.{.{.{.{.{.{.",
"{.{.{.{.{.{.{.{.{.{.{.{.{.{.{.{.{.{.{.{.{.{.{.{.{.{.{.{.{.{.{.{.{.{.{.{.{.{.{.{.{.{.{.{.{.{.{.{.{.{.{.{.{.{.{.{.{.{.{.{.{.{.{.{.",
"{.{.{.{.{.{.{.{.{.{.{.{.{.{.{.{.{.{.{.{.{.{.{.{.{.{.{.{.{.{.{.{.{.{.{.{.{.{.{.{.{.{.{.{.{.{.{.{.{.{.{.{.{.{.{.{.{.{.{.{.{.{.{.{.",
"{.{.{.{.{.{.{.{.{.{.{.{.{.{.{.{.{.{.{.{.{.{.{.{.{.{.{.{.{.{.{.{.{.{.{.{.{.{.{.{.{.{.{.{.{.{.{.{.{.{.{.{.{.{.{.{.{.{.{.{.{.{.{.{.",
"{.{.{.{.{.{.{.{.{.{.{.{.{.{.{.{.{.{.{.{.{.{.{.{.{.{.{.{.{.{.{.{.{.{.{.{.{.{.{.{.{.{.{.{.{.{.{.{.{.{.{.{.{.{.{.{.{.{.{.{.{.{.{.{.",
"{.{.{.{.{.{.{.{.{.{.{.{.{.{.{.{.{.{.{.{.{.{.{.{.{.{.{.{.{.{.{.{.{.{.{.{.{.{.{.{.{.{.{.{.{.{.{.{.{.{.{.{.{.{.{.{.{.{.{.{.{.{.{.{.",
"{.{.{.{.{.{.{.{.{.{.{.{.{.{.{.{.{.{.{.{.{.{.{.{.{.{.{.{.{.{.{.{.{.{.{.{.{.{.{.{.{.{.{.{.{.{.{.{.{.{.{.{.{.{.{.{.{.{.{.{.{.{.{.{.",
"{.{.{.{.{.{.{.{.{.{.{.{.{.{.{.{.{.{.{.{.{.{.{.{.{.{.{.{.{.{.{.{.{.{.{.{.{.{.{.{.{.{.{.{.{.{.{.{.{.{.{.{.{.{.{.{.{.{.{.{.{.{.{.{.",
"{.{.{.{.{.{.{.{.{.{.{.{.{.{.{.{.{.{.{.{.{.{.{.{.{.{.{.{.{.{.{.{.[.).[.{.`._.{.{.{.{.{.{.{.{.{.{.{.{.{.{.{.{.{.{.{.{.{.{.{.{.{.{.",
"{.{.{.{.{.{.{.{.{.{.{.{.{.{.{.{.{.{.{.{.{.{.{.{.{.{.{.{.{.{.{.{.{.{.].[.[.{.].{.{.{.{.{.{.{.{.{.{.{.{.{.{.{.{.{.{.{.{.{.{.{.{.{.",
"{.{.{.{.{.{.{.{.{.{.{.{.{.{.{.{.{.{.{.{.{.{.{.{.{.{.{.{.{.{.{.{.].^.{.{._.{.].{.{.{.{.{.{.{.{.{.{.{.{.{.{.{.{.{.{.{.{.{.{.{.{.{.",
"{.{.{.{.{.{.{.{.{.{.{.{.{.{.{.{.{.{.{.{.{.{.{.{.{.{.{.{.{.{.{.{.* `.].]._.{.].{.{.{.{.{.{.{.{.{.{.{.{.{.{.{.{.{.{.{.{.{.{.{.{.{.",
"{.{.{.{.{.{.{.{.{.{.{.{.{.{.{.{.{.{.{.{.{.{.{.{.{.{.{.{.{.{.{.{.: U.~.{.{._.{.{.{.{.{.{.{.{.{.{.{.{.{.{.{.{.{.{.{.{.{.{.{.{.{.{.",
"{.{.{.{.{.{.{.{.{.{.{.{.{.{.{.{.{.{.{.{.{.{.{.{.{.{.{.{.{.{.{.{.5 *.~._.].{.{.[.{.{.{.{.{.{.{.{.{.{.{.{.{.{.{.{.{.{.{.{.{.{.{.{.",
"{.{.{.{.{.{.{.{.{.{.{.{.{.{.{.{.{.{.{.{.{.{.{.{.{.{.{.{.{.{.{.{.w.Y.`.[.{.].{.{.{.{.{.{.{.{.{.{.{.{.{.{.{.{.{.{.{.{.{.{.{.{.{.{.",
"{.{.{.{.{.{.{.{.{.{.{.{.{.{.{.{.{.{.{.{.{.{.{.{.{.{.{.{.{.{.{.{.w !.{.{.[.{.{.[.{.{.{.{.{.{.{.{.{.{.{.{.{.{.{.{.{.{.{.{.{.{.{.{.",
"{.{.{.{.{.{.{.{.{.{.{.{.{.{.{.{.{.[.{._.{.{.[.{.{.{.].{.).{.[.{.{.{.].`.{.E.].{.{.{.{.`.{.].E.{.{.{.{.{.{.{.{.{.{.{.{.{.{.{.{.{.",
"{.{.{.{.{.{.{.{.{.{.{.{.{.{.{.{.{.{.{.{.[.).`.{.'.{.{.).{.[.).{.W.(._.{.[.{.{.[.].{.[.(.{.].{.].{.{.{.{.{.{.{.{.{.{.{.{.{.{.{.{.",
"{.{.{.{.{.{.{.{.{.{.{.{.{.{.{.{._.[.].].].{.{.`.{.{.{._.{.{.{.{.{.`.].].[.{.L I J I  ...Y #.T.`.{.{.{.{.{.{.{.{.{.{.{.{.{.{.{.{.",
"{.{.{.{.{.{.{.{.{.{.{.{.{.{.{.{.`.{.{.{.{.'._.`.{.{.).`.{.{.~.{.[.`.'.{.(.Q (.[.( {.{.H ).{.) `.{.{.{.{.{.{.{.{.{.{.{.{.{.{.{.{.",
"{.{.{.{.{.{.{.{.{.{.{.{.{.{.{.{.{.`.`.~.`.[.{.].].[.{.{.(.{.{.].w `.[.{.F u >.I > S -.A [ :.O.].{.{.{.{.{.{.{.{.{.{.{.{.{.{.{.{.",
"{.{.{.{.{.{.{.{.{.{.{.{.{.{.{.{.[.{.{.{.{.[.{.{.{.{.'.{.{.].{.{.u R.{.~.,.3.s 2 x B * , > 4 Q _.{.{.{.{.{.{.{.{.{.{.{.{.{.{.{.{.",
"{.{.{.{.{.{.{.{.{.{.{.{.{.{.{.{.{.].{.].[.{.!.^ F U Q D | W R W a >.@._ 7.a.5.l.d.8.r.g.q.%.,.{.{.{.{.{.{.{.{.{.{.{.{.{.{.{.{.{.",
"{.{.{.{.{.{.{.{.{.{.{.{.{.{.{.{.[.`.] I I ,.J T | {.W.| [.).W {.o o.`.{.0.7.j.d.h.u.q.d.f.h.U {.{.{.{.{.{.{.{.{.{.{.{.{.{.{.{.{.",
"{.{.{.{.{.{.{.{.{.{.{.{.{.{.{.{.{ =.`.{.G {.{.W o l.e.@ e.k.X k.v ; t.5 p.| W | T I ..' -.| F {.{.{.{.{.{.{.{.{.{.{.{.{.{.{.{.{.",
"{.{.{.{.{.{.{.{.{.{.{.{.{.{.{.{.K &.d.i., 2.e.$ : 0 . 0 e 0 0 # e : $ d.~ g.p.p.A 6.l.< 1.k.W {.{.{.{.{.{.{.{.{.{.{.{.{.{.{.{.{.",
"{.{.{.{.{.{.{.{.{.{.{.{.{.{.{.{.{.| ] o.` E P W o.` J O.| / O.` G W W | f.j.: +.P E W J <.T I {.{.{.{.{.{.{.{.{.{.{.{.{.{.{.{.{.",
"{.{.{.{.{.{.{.{.{.{.{.{.{.{.{.{.].Y y.9.Y e.i.^ U f.f./ 2.p./ g.f.` f./ | { $ # v , w e 0 { ` {.{.{.{.{.{.{.{.{.{.{.{.{.{.{.{.{.",
"{.{.{.{.{.{.{.{.{.{.{.{.{.{.{.{.{.].| U $.U ;.O.Y  .Y  .Q ( Y ( J | / { C w , v u , # N # I ,.`.{.{.{.{.{.{.{.{.{.{.{.{.{.{.{.{.",
"{.{.{.{.{.{.{.{.{.{.{.{.{.{.{.{._.).!.X.+ r 9 c w & & w w & w & < < , : + . 0 . 6 9 6 e 7 W ^ {.{.{.{.{.{.{.{.{.{.{.{.{.{.{.{.{.",
"{.{.{.{.{.{.{.{.{.{.{.{.{.{.{.{.'.{.[.' : # O z & w w & , e & e . e ; e v , b 7 , p v - = :.} `.{.{.{.{.{.{.{.{.{.{.{.{.{.{.{.{.",
"{.{.{.{.{.{.{.{.{.{.{.{.{.{.{.{.`.{.`.{.%.~ < < , ; , e e ; , , w & e , > e % e # B . 0 n W !.{.{.{.{.{.{.{.{.{.{.{.{.{.{.{.{.{.",
"{.{.{.{.{.{.{.{.{.{.{.{.{.{.{.{.`.[.{.).[.b.$ 7 v , 0 w w , , ; : o w y v 4 0 t < . 8 9 $ {.].{.{.{.{.{.{.{.{.{.{.{.{.{.{.{.{.{.",
"{.{.{.{.{.{.{.{.{.{.{.{.{.{.{.{.].`.[.{.].`.I.$ 6 : @ i c & Z 3 w 6 & , % e ; b > m ; w g {.`.`.{.{.{.{.{.{.{.{.{.{.{.{.{.{.{.{.",
"{.{.{.{.{.{.{.{.{.{.{.{.{.{.{.{.[.{.(.`.`.].V.P.K.  Z e ; > i i i v q 5 q : . 3 6 : s f [._.(.{.{.{.{.{.{.{.{.{.{.{.{.{.{.{.{.{.",
"{.{.{.{.{.{.{.{.{.{.{.{.{.{.{.{.{.).).{.`.{.].l V.J.x.N.F.N.g C.b.B.z.G.v.v.H.b.S.D.M.`.{.'.].{.{.{.{.{.{.{.{.{.{.{.{.{.{.{.{.{.",
"{.{.{.{.{.{.{.{.{.{.{.{.{.{.{.{.{.).`.{.].[.~.{.).`.`.`.[.d J.K.L.f G.V.h (._.{.{.`.~.{.`.{.!.{.{.{.{.{.{.{.{.{.{.{.{.{.{.{.{.{.",
"{.{.{.{.{.{.{.{.{.{.{.{.{.{.{.{.[.{.{.`.[.[.{.c.k Z.n.[.{.].{.[.[._.~.{.).`.(.m.n.j [.].{.[.[.~.{.{.{.{.{.{.{.{.{.{.{.{.{.{.{.{.",
"{.{.{.{.{.{.{.{.{.{.{.{.{.{.{.{.[.{.W.[.].{.{.]._.[.'.).).{.[.`.).`.{.[.{.`.E.{.{.'.].(.].Q.[.{.{.{.{.{.{.{.{.{.{.{.{.{.{.{.{.{.",
"{.{.{.{.{.{.{.{.{.{.{.{.{.{.{.{.).{.[.{.{.!._.{.{.].{.{.{.[.{.{.{.{._.{.{.].{.[._.{.{.{.[.].`.{.{.{.{.{.{.{.{.{.{.{.{.{.{.{.{.{.",
"{.{.{.{.{.{.{.{.{.{.{.{.{.{.{.{.{.{.{.{.{.{.{.{.{.{.{.{.{.{.{.{.{.{.{.{.{.{.{.{.{.{.{.{.{.{.{.{.{.{.{.{.{.{.{.{.{.{.{.{.{.{.{.{.",
"{.{.{.{.{.{.{.{.{.{.{.{.{.{.{.{.{.{.{.{.{.{.{.{.{.{.{.{.{.{.{.{.{.{.{.{.{.{.{.{.{.{.{.{.{.{.{.{.{.{.{.{.{.{.{.{.{.{.{.{.{.{.{.{.",
"{.{.{.{.{.{.{.{.{.{.{.{.{.{.{.{.{.{.{.{.{.{.{.{.{.{.{.{.{.{.{.{.{.{.{.{.{.{.{.{.{.{.{.{.{.{.{.{.{.{.{.{.{.{.{.{.{.{.{.{.{.{.{.{.",
"{.{.{.{.{.{.{.{.{.{.{.{.{.{.{.{.{.{.{.{.{.{.{.{.{.{.{.{.{.{.{.{.{.{.{.{.{.{.{.{.{.{.{.{.{.{.{.{.{.{.{.{.{.{.{.{.{.{.{.{.{.{.{.{.",
"{.{.{.{.{.{.{.{.{.{.{.{.{.{.{.{.{.{.{.{.{.{.{.{.{.{.{.{.{.{.{.{.{.{.{.{.{.{.{.{.{.{.{.{.{.{.{.{.{.{.{.{.{.{.{.{.{.{.{.{.{.{.{.{.",
"{.{.{.{.{.{.{.{.{.{.{.{.{.{.{.{.{.{.{.{.{.{.{.{.{.{.{.{.{.{.{.{.{.{.{.{.{.{.{.{.{.{.{.{.{.{.{.{.{.{.{.{.{.{.{.{.{.{.{.{.{.{.{.{.",
"{.{.{.{.{.{.{.{.{.{.{.{.{.{.{.{.{.{.{.{.{.{.{.{.{.{.{.{.{.{.{.{.{.{.{.{.{.{.{.{.{.{.{.{.{.{.{.{.{.{.{.{.{.{.{.{.{.{.{.{.{.{.{.{.",
"{.{.{.{.{.{.{.{.{.{.{.{.{.{.{.{.{.{.{.{.{.{.{.{.{.{.{.{.{.{.{.{.{.{.{.{.{.{.{.{.{.{.{.{.{.{.{.{.{.{.{.{.{.{.{.{.{.{.{.{.{.{.{.{.",
"{.{.{.{.{.{.{.{.{.{.{.{.{.{.{.{.{.{.{.{.{.{.{.{.{.{.{.{.{.{.{.{.{.{.{.{.{.{.{.{.{.{.{.{.{.{.{.{.{.{.{.{.{.{.{.{.{.{.{.{.{.{.{.{.",
"{.{.{.{.{.{.{.{.{.{.{.{.{.{.{.{.{.{.{.{.{.{.{.{.{.{.{.{.{.{.{.{.{.{.{.{.{.{.{.{.{.{.{.{.{.{.{.{.{.{.{.{.{.{.{.{.{.{.{.{.{.{.{.{.",
"{.{.{.{.{.{.{.{.{.{.{.{.{.{.{.{.{.{.{.{.{.{.{.{.{.{.{.{.{.{.{.{.{.{.{.{.{.{.{.{.{.{.{.{.{.{.{.{.{.{.{.{.{.{.{.{.{.{.{.{.{.{.{.{.",
"{.{.{.{.{.{.{.{.{.{.{.{.{.{.{.{.{.{.{.{.{.{.{.{.{.{.{.{.{.{.{.{.{.{.{.{.{.{.{.{.{.{.{.{.{.{.{.{.{.{.{.{.{.{.{.{.{.{.{.{.{.{.{.{.",
"{.{.{.{.{.{.{.{.{.{.{.{.{.{.{.{.{.{.{.{.{.{.{.{.{.{.{.{.{.{.{.{.{.{.{.{.{.{.{.{.{.{.{.{.{.{.{.{.{.{.{.{.{.{.{.{.{.{.{.{.{.{.{.{.",
"{.{.{.{.{.{.{.{.{.{.{.{.{.{.{.{.{.{.{.{.{.{.{.{.{.{.{.{.{.{.{.{.{.{.{.{.{.{.{.{.{.{.{.{.{.{.{.{.{.{.{.{.{.{.{.{.{.{.{.{.{.{.{.{.",
"{.{.{.{.{.{.{.{.{.{.{.{.{.{.{.{.{.{.{.{.{.{.{.{.{.{.{.{.{.{.{.{.{.{.{.{.{.{.{.{.{.{.{.{.{.{.{.{.{.{.{.{.{.{.{.{.{.{.{.{.{.{.{.{.",
"{.{.{.{.{.{.{.{.{.{.{.{.{.{.{.{.{.{.{.{.{.{.{.{.{.{.{.{.{.{.{.{.{.{.{.{.{.{.{.{.{.{.{.{.{.{.{.{.{.{.{.{.{.{.{.{.{.{.{.{.{.{.{.{."
};
