/* XPM */
static char *Exit_boat1694785951[] = {
/* columns rows colors chars-per-pixel */
"64 64 243 2 ",
"   c None",
".  c #2B1B0A",
"X  c #38251A",
"o  c #3B2525",
"O  c #2A353A",
"+  c #37373B",
"@  c #0F0F15",
"#  c #462826",
"$  c #56392A",
"%  c #533230",
"&  c #583435",
"*  c #4F312D",
"=  c #7B2926",
"-  c #693532",
";  c #7A3835",
":  c #6F2D29",
">  c #431924",
",  c #5B412C",
"<  c #59473A",
"1  c #4A433E",
"2  c #63452B",
"3  c #69492C",
"4  c #734C2D",
"5  c #694B35",
"6  c #754C32",
"7  c #765839",
"8  c #795638",
"9  c #6F5535",
"0  c #786239",
"q  c #2C3A42",
"w  c #2A3740",
"e  c #333B41",
"r  c #3D3F41",
"t  c #433D42",
"y  c #3D4244",
"u  c #3F4056",
"i  c #33606E",
"p  c #494645",
"a  c #564B45",
"s  c #5C5449",
"d  c #595757",
"f  c #4D4F57",
"g  c #674A45",
"h  c #695846",
"j  c #765B45",
"k  c #655D59",
"l  c #654D5A",
"z  c #52655A",
"x  c #796247",
"c  c #676358",
"v  c #766758",
"b  c #53556A",
"n  c #6C5862",
"m  c #51716F",
"M  c #6B6B6B",
"N  c #686766",
"B  c #786866",
"V  c #77746C",
"C  c #7C7C7B",
"Z  c #767576",
"A  c #696A73",
"S  c #A73F17",
"D  c #8A2A27",
"F  c #992D29",
"G  c #853633",
"H  c #943732",
"J  c #90352B",
"K  c #A6352C",
"L  c #BA382D",
"P  c #A93A37",
"I  c #BD3C3D",
"U  c #B53A37",
"Y  c #A12F2A",
"T  c #9C3B14",
"R  c #CC3D34",
"E  c #C03D3E",
"W  c #C33C34",
"Q  c #D83E34",
"!  c #C6382F",
"~  c #B04D1B",
"^  c #865A39",
"/  c #954F36",
"(  c #AB4835",
")  c #B74637",
"_  c #A9542F",
"`  c #86633E",
"'  c #886D3C",
"]  c #B46F31",
"[  c #9A621F",
"{  c #C44537",
"}  c #D94237",
"|  c #E44236",
" . c #EB4337",
".. c #D06C25",
"X. c #EA7729",
"o. c #C65D1F",
"O. c #BA3F40",
"+. c #8B5049",
"@. c #B84848",
"#. c #A85151",
"$. c #886947",
"%. c #946C42",
"&. c #9B6C43",
"*. c #9C7446",
"=. c #93744D",
"-. c #9B774A",
";. c #8C7455",
":. c #A67949",
">. c #A37B54",
",. c #B26F4E",
"<. c #8E726F",
"1. c #B07271",
"2. c #D35848",
"3. c #D0704D",
"4. c #F26F5A",
"5. c #C47371",
"6. c #FF7460",
"7. c #73CE3F",
"8. c #4C8378",
"9. c #6DA155",
"0. c #A98F31",
"q. c #BAA632",
"w. c #9C882D",
"e. c #D3BC37",
"r. c #C9B134",
"t. c #E89D33",
"y. c #D8C437",
"u. c #EED83B",
"i. c #988656",
"p. c #AB824B",
"a. c #AB8453",
"s. c #B48B54",
"d. c #B58952",
"f. c #BC9157",
"g. c #BE9258",
"h. c #AF8F4C",
"j. c #B2A85A",
"k. c #928972",
"l. c #AF926D",
"z. c #B9A77B",
"x. c #C19459",
"c. c #CD9E5B",
"v. c #C59758",
"b. c #D19155",
"n. c #C8AC53",
"m. c #C49975",
"M. c #CDA862",
"N. c #EBB556",
"B. c #D6C96E",
"V. c #EDD16C",
"C. c #FBE77B",
"Z. c #1D1CB6",
"A. c #312FAA",
"S. c #221CB4",
"D. c #797A86",
"F. c #565093",
"G. c #937F80",
"H. c #2F9C92",
"J. c #36A399",
"K. c #2BA89E",
"L. c #1CB6A7",
"P. c #1CB8AD",
"I. c #1DB6AC",
"U. c #22BEB3",
"Y. c #2FB2A8",
"T. c #43968B",
"R. c #489286",
"E. c #7C8186",
"W. c #738E8E",
"Q. c #51A497",
"!. c #4EAFA7",
"~. c #68A7A3",
"^. c #1DC1B6",
"/. c #21C0B5",
"(. c #6BC0B8",
"). c #868787",
"_. c #9A988A",
"`. c #999899",
"'. c #958B88",
"]. c #A49A98",
"[. c #AD938A",
"{. c #B8A788",
"}. c #A5A39D",
"|. c #A8A599",
" X c #B4AA92",
".X c #9498A5",
"XX c #858FA4",
"oX c #A79EA2",
"OX c #98A7AD",
"+X c #ADABA5",
"@X c #A7A6A8",
"#X c #B2AFAA",
"$X c #B8ACA7",
"%X c #B5B3AD",
"&X c #B8B6AA",
"*X c #ABADB3",
"=X c #B9B5B2",
"-X c #BDBBB4",
";X c #BDBBBB",
":X c #B5B4B7",
">X c #AEB2B8",
",X c #C79192",
"<X c #CAB490",
"1X c #CAA7A7",
"2X c #C5BDB9",
"3X c #CBB8AA",
"4X c #CA9FA0",
"5X c #BFC0B9",
"6X c #E2D287",
"7X c #D7CAA7",
"8X c #C4C3BB",
"9X c #C8C6BA",
"0X c #D6C5B8",
"qX c #CFC9A4",
"wX c #E9E191",
"eX c #B7BCC5",
"rX c #ABB0C3",
"tX c #B9C6C6",
"yX c #C4C3C3",
"uX c #CCCCC3",
"iX c #C9C9C9",
"pX c #D2CDCB",
"aX c #D1D0C7",
"sX c #D4D4CA",
"dX c #D9D9CE",
"fX c #D8D8CE",
"gX c #D3D3D3",
"hX c #DCDCD2",
"jX c #DCDCDC",
"kX c #D7D7D9",
"lX c #CBCDD3",
"zX c #E1E1D6",
"xX c #E4E4DA",
"cX c #EAEADE",
"vX c #F4EEC3",
"bX c #DCDEE1",
"nX c #E4E3E4",
"mX c #EDEDE1",
"MX c #EBEBEB",
"NX c #F1F1E5",
"BX c #F8F8F8",
"VX c #F0EFF1",
"CX c #E0E0DB",
/* pixels */
"                                                                                      .                                         ",
"                                                                                    c a                 $ 4                     ",
"                                                                                      +           , $ < k k                     ",
"                                                                                      >X@X    $ , N |.9XsX                      ",
"                                                                                      <.V < < '.&XdXfXdXdX                      ",
"                                            .                                       , 2 7 |.fXzXhXhXdXhXuX                      ",
"                                        . N .                                   , 2 v +XaXfXhXxXxXzXdXhXuX                      ",
"                                          e X                               3 2 k +XuXzXfXhXhXhXzXmXhXdXuX                      ",
"                                            <                 7           3 c &XaXsXaXhXzXxXxXhXxXcXdXhXaX            # #       ",
"                                        p.c.i.j./         6 h k.        B =XaXuXfXhXhXdXhXcXzXdXNXhXhXdXhX          H #         ",
"                                        i.k.M k.g     4 ;.*XsX          dXaXfXdXaXxXdXhXhXmXxXdXNXdXdXxXxX      $ L { #         ",
"                                        _.|.).|.z 5 j }.sXdX8X        9XdXaXaXhXdXhXmXdXdXmXzXhXNXhXxXcXdX8XJ } * | H           ",
"                                        yX.X).B h |.uXhXdXdX          dXaXdXdXhXdXhXNXhXsXNXhXzXNXhXNXdXhXzX2.R G  .;           ",
"                                          Z v |.pXhXhXhXzX9X          hXhXdXhXdXdXsXdX9X%XdXuXsXsX9XcXdXNXhX2XP K | %           ",
"                                        3 v +XhXhXfXzXaXsX9X        fXsXhXaXaX8X&XuXaX9XsXdX8X5XaXcXaX9XdXsXNX2X) } %           ",
"                                    4 3 ].uXhXCXVXbXsXhXhX=X        sXdX9X9X8X-X#X#X#X|.=X|.=X|.#X#X+X+X+X@X-XdX3X2.%           ",
"                                  6 x -XhXfXdXVXBXNXdXzXfX          aX9X|.=X#X|.}.%X@X#X}.`.G.k.k.).k.].oX].+X@X-X].a           ",
"                                4 ].aXaXfXfXnXdX8XxXhXhXdX          -XuX-X+X#X+X+X}.Z p @ > F J  .& ! U - Q P < +.j 7 $         ",
"                            8 j 8X9X0XhXaXjXaXhXhXzXdXxXuX          5XfX+X}.+X`.      o + ! I { R * Q U 6 _ ^ 7 ) ) *           ",
"                            v uX7XN.y.3XjXxXzXhXzXhXhXzXsX          9X&X+X`.            K  .H U ) 7 / ^ 6 Q L % } } % #         ",
"                            sX7Xt.X.~ m.M.l. XzXxXhXhXhXsX          #X%X|.            / x / $.^ _ % | U ;  .R % R  .G *         ",
"                          kXjX,._ 0.<X0XaXhXzXxXmXhXhXhXsX          |.+X            $.k.$._ * R { * | U - | | - K  .U %         ",
"                          pX0Xx.7X2XBXuXcXxXhXhXxXcXhXhXsX            }.        8 0 j $.+.R % R { % | Q % }  .H - | } % #       ",
"                        8X{.3XBX).@ VX9XcXcXzXhXzXNXzXhXmX            8.  7 ` 7       _ K R % R Q & W Q % U  .Q * U  .H %       ",
"                        9X9Xc BXc + kXhXhXNXhXhXzXmXhXzXmX            $.^             &.6 ! G !  .% U  .G -  .Q ; -  .{ % #     ",
"                        zX5X8.BX).;XhXhXhXNXzXhXzXNXhXxXcX                            &.L Q G P  .G : ! D o = Y D o F Q J %     ",
"                      -XzXyXyXCXBXxXxXzXhXNXhXhXxXcXzXcXxX8X                          ) 4 ! F J } = > D F # # F F : > F Y * o   ",
"                      %XxXzXsXkXnXlXMXfXaXhXfXfXxXhXhXNXhXaX                          =.6 ! U % Y D o = F D o : F = X $ $ 2 5   ",
"                      %XxXsXyXlXbXsXjXMX5XaXaXuXfXsXzXNXhXxX                          ] L Q ! o D F > # D =     , 2 3           ",
"                      %XxXaXyXiXlXjXuXhXBXCXaXkXdX5XuXcXhXNX5X                        ) 4 L Y o : D         6 2                 ",
"                      +XcXuXyXjXiXeX8X=X;XeXgXbXVX5XzX9XsXxXsX                        &.K ! D         4 4                       ",
"                      %XxXCX5X*X>XeX@X%X8X@X>XeXOX%XuXaXxXaXdX                        ( /       9 4 4     d f f y f             ",
"                        aXMX+X*XeXeX`.2X%X#X*XrX].8X=X%XuXuXuX-X                  w O O O O * 9         ^ ,.>.+.b u             ",
"            o.o.        :XjX}.@X*X*X%X=X#X2X&X@X%X2X#X5X=X2X=XuX                    o 5 X X         ( 3.3.V.b.H D.XX>.d.        ",
"            X.o.      gXiXlX`.=X*X;X%X=X-X=X+X#X;X=X=X2X#X8X%X8X].                    5 $           d.@.v.V.;.u F.l.b.N.p.      ",
"        ....X.X.+.>X`.nX>X*X@X=X#X%X+X].  h 9 %   C '.@X+X2X=X2X=X                    :.0         5 V k.m  X Xm '.k.N ;.-.      ",
"        ....X.X.].iXk.jXeX}.}.#X+X        =.'.].    M       #X=X8X@X                  &.0 7.7.      a 3XW.qX7XW. X X_._.y       ",
"      B.v.t...o.k.V $X.X@X8X+X}.        `.}.MXnXMX`.N M         +X2X        d N G.Z Z V V V V Z G.N Z s k k c N V c s d p       ",
"    V.V.V.o.~ ~ B i.=X0.<. X-XlX      @XD.nXjXnXkXiXM N             ].      m.m.3.4.4.4.4.2.{ { ) P [.gX5XlXbXiXuX5XiX+X`.      ",
"  M.6XE.<X] o.X.[ |.i.e.j.C.wX&XjX  iX*X*XbXCXnXgXpXA N                   7XvXvXqX4.6.6.6.4.} ) { { ) ;X.XOXeXrXOXOX*X;X        ",
" XvX6X|.6Xt...S <.k.y.y.B.j.B.j.kXyX:X:XyX2XkXkXjX  M N                   <.l.l.l.2.;.4.5.>.2.v ( x /     @X>XE.f               ",
"qXvX6XC.C.[ ~ #.`.r.y.e.k.0 j.-.yX@XU U U E 1.MX:X  M M Z                 .X=X`.).'.).[.,.;.2.j ( j /     rXMXD.                ",
"qXvXB.C.C._ S `.;.y.e.e.<.`.<.G yXoXU 5.4XE G.VX@X    A M         A `.Z G.lXlXO.P U H :X;.$.+.j j j +.l   iXlXD.                ",
"    n.n.j.o.X.n w.y.e.q.U @.1.$XgX].U 2X'.4X1.VXyX    Z M         XXOX+.'.gX$XE E O.O.*XG 6 ; = = ; g g g bXXXl ` ' &.          ",
"A.      0.S o.~ 0.e.y.] ..] E E lXB U ,X2X5.O.lXbX  F.F.F.A.Z.S.A..XOX_.`.MX[.E E E #.OXb D.B B n k n l l `.;.%.7 -.:.:.        ",
"  /./.8.S / H T [ r.y.) n.u.@.E lXG.U I E E O.*XVXOXY.m m F.^./.~..X`.9.eXnX#.E E E 1.$Xi {.k.;.<XZ k.iX`.$.&.%.5 ] :.:.W.      ",
"S.Z.U.Q.Y.OX<.9 e.e.r.E 0.0.E [.eXoXO.O.1XyXG.1.gXnX~.f p z ~.Q.D.W.9.).nX#X,.2X1XI ].{.i z.X X l.8.k.j *.:.%.%.$.^ :.:.k.^.^.^.",
"Z.Z.Z.Z.(._.}.w.u.y.&.E E E E 2X].1X#.O.yX<.1XO.'.pXmX_.M f N c k k Z nXaX@.,XoXyXU @X{.[.{.1 t l.[.{.g +.&.' %.$.^ :.:.$.^.^.^.",
"Z.Z.^.^.tXi.@Xq.r.y.<.:X1.I O.gXl.,X|.U 5.1X2.O.O.G.eX*Xf e e q w e :XpX@.E O.,X5.#.`.k d d f p k d d f d :.&.&.^ 2 +.^ j ^.^.^.",
"/./.^.(.>X=.:Xq.y.] U @.$XeXoXyXx.v.2X@.E E 1X;X,XO.t p -.x.v.g.>.t q ; 5.yXyX5.@.].z M N N A N M M M N k ` ^ 8 2 , 6 6 c ^.^.Z.",
"/././.lX;X=XnX].h.( r.e.O.@.gXl.v.v.z.;X@.I 2X@X4X& a a.v.v.d.:.x.:.t w <.;X:X5.'.oXC Z C C D.C <.Z C C V 5 8 5 , 5 8 j R.^.Z.Z.",
"Z.S.Y.;X.XiXeXW.A ^ e.u.) [.yXv x.x.x.,XeX@.2.1.O.e ;.c.c.,.D :.c.c.+.w & 5.5.<.#X<.[.4Xl.i.d E.l.l.l.m K.m 5 2 , 7 6 8 K.^.Z.Z.",
"Z.Z.^.!.!.~.!.!.<.]._ ( O.gXZ e v v.v.v.{.eX1.I ; w >.x.x.x.J &.v.g.%.O e U <.*X>.x.uX].7Xa.Z =X9Xv.j =.a.K.1 , 5 8 8 R./.^.Z.Z.",
"Z.Z.^.^.^.^.^.^.Q.G.].I 1XrX*.=.q >.c.M.c.v.$X-Xn t d.x.x.x.D &.v.g.%.O q '.;X>.x.v.uX2X Xr d 9X<Xa.p s.c.W.K.H.T.T.K.^./.^.Z.Z.",
"^.^.^.^.^.^.^.^.U.Z ,X+XkX;.%.s.$.q ;.x.v.v.v.l.<.r f.c.c.c.J :.c.v.%.O k |.:.f.x.x.x.a.e p f.g.x.$.t j ' x n A.Z.Z.Z.^.^.Z.Z.Z.",
"Z.^.^.^.^.^.^.^.Z.Z.F.nX`.` >.v.c.=.e j s.v.v.v.a.q $.x.x.&.D J d.p.< q h :.g.x.x.f.$.r p s.g.g.x.h %.:.c.f.c.Q.^.^.^.^.^.Z.Z.Z.",
"Z.Z.^.^.^.^.^.Z.U.^.U.!.R.6 *.s.x.v.d.h e x s.x.g.h p s.g.d.h.p.:.$.O e -.f.g.s.$.a q x s.g.g.f.=.+ *.*.f.x.c.Q.^.^.^.^.Z.Z.Z.Z.",
"Z.Z.^.^.^.^.Z.Z.Z.^.^.^.P.R.8 :.d.x.x.f.=.a e j =.=.y p =.s.a.=.8 O q s a.=.j e + h a.g.g.g.f.-.` + 5 < 9 9 $.J.^.^.^.Z.^.Z.Z.Z.",
"L.Z.Z.Z.^.^.Z.Z.Z.^.^.^.^.^.R.j *.h.x.f.v.f.=.s r q O q q q O y q O q y y q s -.v.c.x.x.x.f.-.%.z i %.*.a.:.c.Q.^.^.^.Z.Z.Z.Z.Z.",
"L.Z.Z.Z.Z.Z.Z.Z.Z.^.^.^.^.^.^.J.c %.:.x.v.v.c.c.c.c.d.d.i.=.=.-.=.=.=.=.s.f.g.g.x.x.v.v.x.p.%.m ^.L.s *.a.*.g.Q.^.Z.Z.Z.Z.Z.Z.Z.",
"L.Z.Z.Z.Z.Z.Z.Z.Z.Z.^.^.^.^.^.^.P.8.x :.p.x.x.v.g.g.g.g.g.g.g.g.g.g.g.g.f.g.g.g.g.g.v.f.` z J.^.^.^.K.q a 5 j J.Z.Z.Z.Z.Z.Z.Z.Z.",
"Z.Z.Z.Z.Z.Z.Z.Z.Z.Z.Z.Z.^.^.Z.Z.Z.^.I.8.9 $.a.s.f.v.f.v.v.g.v.g.v.g.v.g.f.g.v.g.v.h.$.z J.^.^.^.^.^.^.L.L.L.L.P.Z.Z.Z.Z.Z.P.L.P.",
"L.L.L.Z.Z.Z.Z.Z.L.L.L.Z.Z.^.Z.Z.Z.^.^.^.Y.R.h 0 0 ` *.a.g.g.v.g.g.g.v.f.d.h.=.x h 8.K.^.^.^.^.^.^.^.Z.Z.Z.^.Z.L.L.L.Z.Z.Z.L.L.L.",
"L.L.L.Z.Z.Z.Z.Z.L.L.P.Z.Z.Z.Z.Z.Z.^.^.^.U.U./.L.T.T.m m 7 7 7 7 7 7 7 c m 8.T.Y.P.^.^.^.^.Z.Z.Z.Z.^.Z.Z.Z.Z.Z.L.L.L.Z.Z.Z.L.L.L."
};
