/* XPM */
static char *floor1694784904[] = {
/* columns rows colors chars-per-pixel */
"65 65 10 1 ",
"  c #8A6F30",
". c #96704A",
"X c #FFB62D",
"o c #FAF136",
"O c #C0925F",
"+ c #E8B552",
"@ c #D9A066",
"# c #EDCC7E",
"$ c #EEC39A",
"% c white",
/* pixels */
"@$+@++$@$$@@@$@$@$@@.$.@$$$$+@$@+++$+$$$$$$$@@+$@$@@@@@+@++$++$$$",
"O@@++$@@@@@@$@@@@@@.$$.$$$$++@$$@++++$$+$$$$@@@@@@@+@@+@$@+$++++@",
"$$++$@@@$@@+++@@@@@$XX$@$$$++@@@@@+$$$+$+$+++@@@+@@@+@+@@@+$+++@+",
"$$$$$$@@@+@+.@@@+@@+X+@$$$$@@@@@@@@$++$+++@@+%@+@@+@++@@@+@@+$++@",
"$$++$$@@@@@@.@@@+@+X$X+$$$@+@@@@$$$+++$++++@@@++@++@@@$@@@@@+$$$@",
"$$$$$$$$++@@.@@++.+$$$$@@@@@+$$$$$$$$+$$@@++@+++++++$@$@@@@$++$$$",
"$$$$$@$++@+$$.@++++XX@@@@$@@@+$$$$$$+$$@@++@@+++++++$$$$+@@$++$$+",
"++$$$$$@@@@+$@@@+++$$$@++++@++$$$$$$+++++@@+@+++$+++@+$@@+$$$$$@@",
"+$$$@$$@@@@++@+@@@+$$+++++@+$$$$$$$@$@++++++@@++$@$$@@$$@+@$$+$+@",
"$+$$@@@++@@+@@@@@$+@@$$@@++$$$$$$$$$@@$@@++@++$$$$@$@@@$$$@+@$@@@",
"+$$$@@@@@+@@++@@$$$$@$$$@@+$$$$$$$$@++@+@@++@$$$$@@@$@@@@@@++$$+@",
"$$@$...@@+@@++++$$@$+$$$ @@$$$$$$$$@@@@$$++++$$$$@@@@@@@@$++$@@$@",
"+@$@...@+@++++$+$$@@+$$@@+@@$$$$$@@@@$+$$$@$$$$$$@@@$$@@@$$$O@$$$",
"@@@$..@@@+++@++$$$$$$$@@@+$+$$$$$@@@@@++@@@$$$$$$$$@$$@@$$$$@++@$",
"@@@$@+++++++++$$$$$$$@$@@+++$$@@$@@@+@@@+$$$$$$$$$$@$+@@$$$$$++@$",
"$@@++@$++++$++$$+$$$$$$++$+@$@@@$+@@@@@@@$$$$$@$$@$$$++@++$$+$++$",
"@@+$$+$.$$+@@@+@$$$$@@@@+$@+.@@@@@@@+@@@++$$$$$$@$@@$++@$+$$$$$$$",
"@+++$+$$$$$$$@@+$@$@@@@@+@+.+$$@@++@@@++++$$$$@@$@@@@@$++@+@$$$$+",
"$@++++$$+$$$$@@@@@@@+@@+@$@+@$$$@@+@@@$$+$@$@+@+@+@@+++@$$$$+$$+$",
"@@@+$$$+$+$+++@@@+@@@+@+@@@+$$$$$@@$+@$++$@@@+++@@++@+$$$$$$+$$@$",
"@@@@$++$+++@@+%@+@@+@++@@@+++$$$$++$++++$$+@+++@++@+++$$$$$$$+@$$",
"@$$$+++$++++@@@++@++@@@$@@@++++@+$$$.$$@@$+@+@@ +@$+@+$$$+$+$$$$$",
"$$$@@@$@@@@@@@+++$$+@+@@@@@+@$@++$$$$$@@@@+$@@@+++$$$@++++@+@$@++",
"$$$@@@@@@@@$+$@$$$@@@++@++++$+$+$$$@$$@@@@++@+@@@+$$+++++@@+$+$+$",
"$$$@@@$$@@@$$$$$+$+@@+@+$$$$$++$+$$@@@++@@+@@@@@$+@@$$@@+++$$++$+",
"$$$$$@$$@@$$$$$@$@@@+++$$$$$$@++.$$@@@@@+@@++@@$$$$@$$$@@++$$@++.",
"$$$$$@$+@@$$$$$+$$+@@@+@@$+$$@$+$@$...@@+@@++++$$@$+$$$ @@$$$@$+$",
"@$$@$$$++@++$$$$@@$@@@$+@++$@+++@$@...@+@++++$+$$@@+$$@@+@@$@+++@",
"$$@$@@$++@$+$$+O@$$$$O@@++$$$$$@@@$..@@@+++@++$$$$$$$@@@+$$$$$$@@",
"+@+$$$.++$$@%@$@$$$$@@@@++@$@@+@@@$@+++++++++$$$$$$$@$@@++$$@@+@@",
"++$$$$$++$++@$@@$$$$@@@.+++$$@@$@@++@$++++$++$$+$$$$$$++$++$$@@$@",
"@+@@$+$$X@$@$$$@$$@$$$$.+++@$@@@@+$$+$.$$+@@@+@$$$$@@@@+$@$@$@@@@",
"@$+@++$@$$@@@$@$@$@@.$.@$$$$+@$@+++$+$$$$$$$@@+$@$@@@@@+@++$+@$@+",
"O@@++$@@@@@@$@@@@@@.$$.$$$$++@$$@++++$$+$$$$@@@@@@@+@@+@$@+++@$$@",
"$$++$@@@$@@+++@@@@@$XX$@$$$++@@@@@+$$$+$+$+++@@@+@@@+@+@@@+++@@@@",
"$$$$+$@@@+@+.@@@+@@+X+@$$$$@@@@@@@@$++$+++@@+%@+@@+@++@@@+@@@@@@@",
"$$++$$@@@@@@.@@@+@+X$X+$$$@+@@@@$$$+++$++++@@@++@++@@@$@@@@+@@@@$",
"$$$$$$$$++@@.@@++.+$$$$@@@@@+$$$$$$$$+$$@@++@+++++++$@$@@@@@+$$$$",
"$$$$$@$++@+$$.@++++XX@@@@$@@@+$$$$$$+$$@@++@@+++++++$$$$+@@@@+$$$",
"$$$+$$@@++@@+++++++$$$$+@@$@++$$$$$$+++++@@+@+++$+++@+$@@+$@++$$$",
"$$$+++++@@+@+++$+++@+$@@+$$+$$$$$$$@$@++++++@@++$@$$@@$$@+@+$$$$$",
"$$@$@++++++@@++$@$$@@$$@+@$$$$$$$$$$@@$@@++@++$$$$@$@@@$$$@$$$$$$",
"$$$@@$@@++@++$$$$@$@@@$$$@@$$$$$$$$@++@+@@++@$$$$@@@$@@@@@@$$$$$$",
"$$@++@+@@++@$$$$@@@$@@@@@@o$$$$$$$$@@@@$$++++$$$$@@@@@@@@$+$$$$$$",
"$$@@@@$$++++$$$$@@@@@@@@$+o@$$$$$@@@@$+$$$@$$$$$$@@@$$@@@$$@$$$$$",
"@@@@$+$$$@$$$$$$@@@$$@@@$o$+$$$$$@@@@@++@@@$$$$$$$$@$$@@$$$+$$$$$",
"@@@@@++@@@$$$$$$$$@$$@@$$$$+$$@@$@@@+@@@+$$$$$$$$$$@$+@@$$$+$$@@$",
"@@@+@@@+$$$$$$$$$$@$+@@$o$$@$@@@$+@@@@@@@$$$$$@$$@$$$++@++$@$@@@$",
"+@@@@@@@$$$$$@$$@$$$++@+o$$+.@@@@@@@+@@@++$$$$$$@$@@$++@$+$+.@@@@",
"@@@+@@@++$$$$$$@$@@$++@$+$$.+$$@@++@@@++++$$$$@@$@@@@@$++@+.+$$@@",
"++@@@++++$$$$@@$@@@@@$++@+@+@$$$@@+@@@$$+$@$@+@+@+@@+++@$$$+@$$$@",
"@+@@@$$+$@$@+@+@+@@+++@$$$$+$$$$$@@$+@$++$@@@+++@@++@+$$$$$+$$$$$",
"@@$+@$++$@@@+++@@++@+$$$$$$++$$$$++$++++$$+@+++@++@+++$$$$$++$$$$",
"++$++++$$+@+++@++@+++$$$$$$++++@+$$$.$$@@$+@+@@ +@$+@+$$$+$++++@+",
"++$$$$$$$@@$@@++@++$$$$@$@@+@@@+++$$$$$$$@@$@@++@++$$$$@$@@+$$$$$",
"@+$$$$$$@++@+@@++@$$$$@@@$@@@@+$@+$$$$$$@++@+@@++@$$$$@@@$@+$$$$$",
"@$+$$$$$@@@@$$++++$$$$@@@@@$@@$$@$+$$$$$@@@@$$++++$$$$@@@@@$$$$$$",
"$$#$$$@@@@$+$$$@$$$$$$@@@$$$@$$@$$#$$$@@@@$+$$$@$$$$$$@@@$$$$$$$$",
"+##$$$@@@@@++@@@$$$$$$$$@$$$$+$@+##$$$@@@@@++@@@$$$$$$$$@$$$$$$$$",
"+$$@@$@@@+@@@+$$$$$$$$$$@$+$@@$$+$$@@$@@@+@@@+$$$$$$$$$$@$+$$$$$$",
"$$@@@$+@@@@@@@$$$$$@$$@$$$+$$$+@$$@@@$+@@@@@@@$$$$$@$$@$$$+$$$$@@",
"$+@@@@@@@+@@@++$$$$$$@$@@$+@$$$$$+@@@@@@@+@@@++$$$$$$@$@@$+$$$$@@",
"@+$$@@++@@@++++$$$$@@$@@@@@@$@$$@+$$@@++@@@++++$$$$@@$@@@@@$@@$@@",
"@$$$$@@+@@@$$+$@$@+@+@+@@++@$$$+@$$$$@@+@@@$$+$@$@+@+@+@@++@@@$+@",
"+@@@@$+$$$@$$$++++$++@@++@+$@$$$+@@@@$+$$$@$$$++++$++@@++@+@@@@@@"
};
