/* XPM */
static char *Luffy_standing1694005258[] = {
/* columns rows colors chars-per-pixel */
"64 64 250 2 ",
"   c #020301",
".  c #0C0402",
"X  c #030A01",
"o  c #080608",
"O  c #1C0103",
"+  c #150D01",
"@  c #150506",
"#  c #011102",
"$  c #061A01",
"%  c #151501",
"&  c #070718",
"*  c #170119",
"=  c #081818",
"-  c #1A1A12",
";  c #220100",
":  c #270706",
">  c #370301",
",  c #251A01",
"<  c #271707",
"1  c #381802",
"2  c #260B15",
"3  c #300610",
"4  c #1C2C09",
"5  c #2A2A08",
"6  c #3A3706",
"7  c #282917",
"8  c #060628",
"9  c #140129",
"0  c #041626",
"q  c #15152A",
"w  c #020437",
"e  c #081439",
"r  c #130034",
"t  c #220226",
"y  c #2F0C2E",
"u  c #193934",
"i  c #282A29",
"p  c #362A26",
"a  c #313034",
"s  c #570406",
"d  c #491602",
"f  c #581717",
"g  c #4A0C0F",
"h  c #640307",
"j  c #770A07",
"k  c #750216",
"l  c #77190F",
"z  c #5E331F",
"x  c #483207",
"c  c #633C03",
"v  c #782211",
"b  c #772906",
"n  c #5A0421",
"m  c #463939",
"M  c #683230",
"N  c #771332",
"B  c #3B4905",
"V  c #2C4000",
"C  c #5D4801",
"Z  c #554813",
"A  c #664702",
"S  c #754902",
"D  c #695909",
"F  c #765502",
"G  c #73481B",
"H  c #766907",
"J  c #7B740A",
"K  c #4C4330",
"L  c #655727",
"P  c #705535",
"I  c #6E633A",
"U  c #10294D",
"Y  c #34354E",
"T  c #392659",
"R  c #3A3855",
"E  c #283D54",
"W  c #0F176C",
"Q  c #281B60",
"!  c #0A296B",
"~  c #322870",
"^  c #29194F",
"/  c #423A47",
"(  c #520F56",
")  c #334956",
"_  c #3A494B",
"`  c #504E4A",
"'  c #685A49",
"]  c #685756",
"[  c #784F4C",
"{  c #736C4F",
"}  c #575772",
"|  c #755960",
" . c #655C6C",
".. c #6B6A69",
"X. c #71746C",
"o. c #880407",
"O. c #970503",
"+. c #8A081A",
"@. c #97181B",
"#. c #950E0C",
"$. c #AA0900",
"%. c #B2011B",
"&. c #A01000",
"*. c #982903",
"=. c #882A14",
"-. c #A62C11",
";. c #90072C",
":. c #AB0C33",
">. c #A32320",
",. c #8E3024",
"<. c #CA180F",
"1. c #CA1E36",
"2. c #995505",
"3. c #904C0C",
"4. c #A55605",
"5. c #B24E0A",
"6. c #896903",
"7. c #996705",
"8. c #907210",
"9. c #BE7C09",
"0. c #B1630A",
"q. c #866521",
"w. c #95782D",
"e. c #AE742E",
"r. c #CD4911",
"t. c #D17908",
"y. c #EF7900",
"u. c #EF653E",
"i. c #900744",
"p. c #C30047",
"a. c #8D714F",
"s. c #AE7149",
"d. c #93786E",
"f. c #C17C5B",
"g. c #CB594F",
"h. c #B49702",
"j. c #B09411",
"k. c #ABA705",
"l. c #B4AF04",
"z. c #B58F2B",
"x. c #9DA325",
"c. c #A1A226",
"v. c #B9AC2B",
"b. c #999D1F",
"n. c #C78A04",
"m. c #C59806",
"M. c #D98618",
"N. c #DB900A",
"B. c #EB8101",
"V. c #F88604",
"C. c #EF9309",
"Z. c #D4AF1B",
"A. c #E8A900",
"S. c #F4B50A",
"D. c #D1972E",
"F. c #C29A2F",
"G. c #F2932A",
"H. c #CAA533",
"J. c #CEAD2F",
"K. c #ECB72F",
"L. c #BACE17",
"P. c #C8C90D",
"I. c #D1C929",
"U. c #F1D83E",
"Y. c #958957",
"T. c #AF914E",
"R. c #898878",
"E. c #AB9776",
"W. c #94A37C",
"Q. c #ACB15E",
"!. c #D8984F",
"~. c #E18D4F",
"^. c #DFB343",
"/. c #D1AA45",
"(. c #EFAF50",
"). c #FF9967",
"_. c #CBB071",
"`. c #EDBD73",
"'. c #FFB679",
"]. c #BFD559",
"[. c #CCC352",
"{. c #D6D24B",
"}. c #E9D353",
"|. c #F7CC4D",
" X c #D4CD74",
".X c #E8C771",
"XX c #FBCC76",
"oX c #FFD67E",
"OX c #ECD06A",
"+X c #FFE477",
"@X c #F1ED67",
"#X c #DAF64A",
"$X c #0A1692",
"%X c #0B2C90",
"&X c #0036B5",
"*X c #2B2AA1",
"=X c #4025B2",
"-X c #0447A8",
";X c #1744A8",
":X c #0046B8",
">X c #1244BD",
",X c #164789",
"<X c #446482",
"1X c #757B87",
"2X c #1B3ACA",
"3X c #003BE0",
"4X c #2B30CA",
"5X c #1647CD",
"6X c #2954EB",
"7X c #2651D9",
"8X c #D51B86",
"9X c #847590",
"0X c #93948C",
"qX c #A99291",
"wX c #959DA3",
"eX c #8D90A9",
"rX c #9BA3A7",
"tX c #BCB7AA",
"yX c #A3AAB6",
"uX c #B1A8A2",
"iX c #FFBD88",
"pX c #FFB093",
"aX c #E2B7A2",
"sX c #B0E980",
"dX c #E9D386",
"fX c #F7CD8B",
"gX c #D9E382",
"hX c #FAEB9B",
"jX c #D7C5A3",
"kX c #EFC9B1",
"lX c #FFF7BC",
"zX c #F0EAB0",
"xX c #BFC7D2",
"cX c #D0D6D2",
"vX c #E2C9C2",
"bX c #FDF5D4",
"nX c #DFF1FF",
"mX c #F4FCED",
"MX c #FEFEED",
"NX c #F6FBE6",
"BX c #EAFCF9",
"VX c #F7F7F6",
"CX c #FCF5F4",
"ZX c #F5FDF4",
"AX c #FDFEF4",
"SX c #F6F6FA",
"DX c #FDF5FD",
"FX c #F5FEFD",
"GX c #FFFFFF",
"HX c #EFF6EE",
/* pixels */
"GXGXGXGXGXGXGXGXGXGXGXGXGXGXGXGXGXGXGXGXGXGXGXGXGXGXGXGXGXGXGXGXGXGXGXGXGXGXGXGXGXGXGXGXGXGXGXGXGXGXGXGXGXGXGXGXGXGXGXGXGXGXGXGX",
"GXGXGXGXGXGXGXGXGXGXGXGXGXGXGXGXGXGXGXGXGXGXGXGXGXGXGXGXGXGXGXGXGXGXGXGXGXGXGXGXGXGXGXGXGXGXGXGXGXGXGXGXGXGXGXGXGXGXGXGXGXGXGXGX",
"GXGXGXGXGXGXGXGXGXGXGXGXGXGXGXGXGXGXGXGXGXGXGXGXGXGXGXGXGXGXGXGXGXGXGXGXGXGXGXGXGXGXGXGXGXGXGXGXGXGXGXGXGXGXGXGXGXGXGXGXGXGXGXGX",
"GXGXGXGXGXGXGXGXGXGXGXGXGXGXGXGXGXGXGXGXGXGXGXGXGXGXGXGXGXGXGXGXGXGXGXGXGXGXGXGXGXGXGXGXGXGXGXGXGXGXGXGXGXGXGXGXGXGXGXGXGXGXGXGX",
"GXGXGXGXGXGXGXGXGXGXGXGXGXGXGXGXGXGXGXGXGXGXGXGXGXGXGXGXGXGXGXGXGXGXGXGXGXGXGXGXGXGXGXGXGXGXGXGXGXGXGXGXGXGXGXGXGXGXGXGXGXGXGXGX",
"GXGXGXGXGXGXGXGXGXGXGXGXGXGXGXGXGXGXGXGXGXGXGXGXGXGXGXGXGXGXGXGXGXGXGXGXGXGXGXGXGXGXGXGXGXGXGXGXGXGXGXGXGXGXGXGXGXGXGXGXGXGXGXGX",
"GXGXGXGXGXGXGXGXGXGXGXGXGXGXGXGXGXGXGXGXGXGXGXGXGXGXGXGXGXGXGXGXGXGXGXGXGXGXGXGXGXGXGXGXGXGXGXGXGXGXGXGXGXGXGXGXGXGXGXGXGXGXGXGX",
"GXGXGXGXGXGXGXGXGXGXGXGXGXGXGXGXGXGXGXGXGXGXGXGXGXGXGXGXGXGXGXGXGXGXGXGXGXGXGXGXGXGXGXGXGXGXGXGXGXGXGXGXGXGXGXGXGXGXGXGXGXGXGXGX",
"GXGXGXGXGXGXGXGXGXGXGXGXGXGXGXGXGXGXGXGXGXGXGXGXGXAXAXZXGXGXd.d.P q.tXDXZXGXGXAXGXGXGXGXGXAXGXGXGXGXGXGXGXGXGXGXGXGXGXGXGXGXGXGX",
"GXGXGXGXGXGXGXGXGXGXGXGXGXGXGXGXGXGXGXGXGXGXGXGXGXGXDXFXDX0XY.D /.Y.a.a.d.GXSXAXGXVXGXGXGXGXAXFXGXGXGXGXGXGXGXGXGXGXGXGXGXGXGXGX",
"GXGXGXGXGXGXGXGXGXGXGXGXGXGXGXGXGXGXGXGXGXGXGXGXDXFXGXZXE.D H.^.Z.}.+Xj.D { GXAXDXGXAXGXGXVXGXGXGXGXGXGXGXGXGXGXGXGXGXGXGXGXGXGX",
"GXGXGXGXGXGXGXGXGXGXGXGXGXGXGXGXGXGXGXGXGXGXGXGXGXZXAXtX3.8.|.j._.`.gX}.@Xq.P AXAXGXGXFXGXAXGXCXGXGXGXGXGXGXGXGXGXGXGXGXGXGXGXGX",
"GXGXGXGXGXGXGXGXGXGXGXGXGXGXGXGXGXGXGXGXGXGXGXGXAXBXGX{ 8.k.h.}.l.+X[.XXOXfX1 DXGXSXGXGXSXGXGXGXGXGXGXGXGXGXGXGXGXGXGXGXGXGXGXGX",
"GXGXGXGXGXGXGXGXGXGXGXGXGXGXGXGXGXGXGXGXGXGXGXGXDXGXqX8.m.h.v.S 4.4.r.u.r.0.e.uXAXGXGXGXGXGXFXGXGXGXGXGXGXGXGXGXGXGXGXGXGXGXGXGX",
"GXGXGXGXGXGXGXGXGXGXGXGXGXGXGXGXGXGXGXGXGXGXGXGXFXGXz e.0.b l l ;.;.%.$.$.*.3.[ AXAXGXDXGXGXGXGXGXGXGXGXGXGXGXGXGXGXGXGXGXGXGXGX",
"GXGXGXGXGXGXGXGXGXGXGXGXGXGXGXGXGXGXGXGXGXGXGXGXGXGXP o.o.f s.!.z.(.K.^.!.).~.aX' ` AXGXVXGXGXAXGXGXGXGXGXGXGXGXGXGXGXGXGXGXGXGX",
"GXGXGXGXGXGXGXGXGXGXGXGXGXGXGXGXGXGXGXGXGXGXGXGXZX] @ T.U./.K.Z.k.J.l.L.Z.P.v.D.K.T.X.GXGXAXFXGXGXGXGXGXGXGXGXGXGXGXGXGXGXGXGXGX",
"GXGXGXGXGXGXGXGXGXGXGXGXGXGXGXGXGXGXGXGXGXVXGXGXK Y._._.C a 6 1 Y 1 6 - , 2 5 6.k.v._.m FXAXVXGXGXGXGXGXGXGXGXGXGXGXGXGXGXGXGXGX",
"GXGXGXGXGXGXGXGXGXGXGXGXGXGXGXGXGXGXGXVXGXGXGX..Y.J.j.1 & w X + * 2     w & o ; 8.c.6 cXDXGXGXFXGXGXGXGXGXGXGXGXGXGXGXGXGXGXGXGX",
"GXGXGXGXGXGXGXGXGXGXGXGXGXGXGXGXGXGXGXGXGXGXGXX.T.6.H 1 8 @ u   H 8 Q.O & % X & 0XR.AXGXGXCXGXAXGXGXGXGXGXGXGXGXGXGXGXGXGXGXGXGX",
"GXGXGXGXGXGXGXGXGXGXGXGXGXGXGXGXGXDXFXGXGXGXGXGX% c x & & f & c.AXBXo h.> o e w SXAXGXFXAXMXAXGXGXGXGXGXGXGXGXGXGXGXGXGXGXGXGXGX",
"GXGXGXGXGXGXGXGXGXGXGXGXGXGXGXGXGXGXGXVXGXGXGXGXDXqX# o   fXF vXGX) _.XX9.@ q w ZXAXDXGXVXGXFXGXGXGXGXGXGXGXGXGXGXGXGXGXGXGXGXGX",
"GXGXGXGXGXGXGXGXGXGXGXGXGXGXGXGXGXGXGXGXGXVXGXVXGXDXcXGXi (.m.fXbX;  XfXK.v.X AXGXAXDXGXAXGXGXAXGXGXGXGXGXGXGXGXGXGXGXGXGXGXGXGX",
"GXGXGXGXGXGXGXGXGXGXGXGXGXGXGXGXGXVXGXGXGXGXGXGXMXAXBXDX .C D.oXzXiXzXlXz g GXAXDXL Z m GXAXGXDXGXGXGXGXGXGXGXGXGXGXGXGXGXGXGXGX",
"GXGXGXGXGXGXGXGXGXGXGXGXGXGXGXGXGXAXGXGXGXGXGXFXGXAXDXGXFXp = n.lXQ & $ G.o GXGXH l j.kX,.DXAXGXGXGXGXGXGXGXGXGXGXGXGXGXGXGXGXGX",
"GXGXGXGXGXGXGXGXGXGXGXGXGXGXGXGXGXGXGXVXGXSXVXGXGXBXBXDXP . v > y.V.t.G.p GXFX( n.kXS Z.kX@ MXGXGXGXGXGXGXGXGXGXGXGXGXGXGXGXGXGX",
"GXGXGXGXGXGXGXGXGXGXGXGXGXGXGXGXSXAXDXGXGXGXFXGXGXMXGXX.s <.j 8X# o + k DXGXDX. n.g.g F A.jXeXAXGXGXGXGXGXGXGXGXGXGXGXGXGXGXGXGX",
"GXGXGXGXGXGXGXGXGXGXGXGXGXGXGXGXGXGXGXGXGXVXGXGXFXGXY N :.+.$.%.pXsXG.;.; MXGX0Xz.y.Z o 4.E.] AXGXGXGXGXGXGXGXGXGXGXGXGXGXGXGXGX",
"GXGXGXGXGXGXGXGXGXGXGXGXGXGXGXGXGXGXVXGXGXGXGXGXGX` N p.;.f dX;.}.K.I.:.& FXGXGX| w.A ~.A , GXVXGXGXGXGXGXGXGXGXGXGXGXGXGXGXGXGX",
"GXGXGXGXGXGXGXGXGXGXGXGXGXGXGXGXFXGXDXGXSXGXDXDX` @.p.#.n $.*.$.*.kX5.:.#._ GXGXFXo 4.3.+ MXBXGXGXGXGXGXGXGXGXGXGXGXGXGXGXGXGXGX",
"GXGXGXGXGXGXGXGXGXGXGXGXGXGXGXGXGXFXGXGXFXGXFXm z +.>.; 3 @ # &.OX;.(.;.o.] DXDX< m.n.r GXDXFXGXGXGXGXGXGXGXGXGXGXGXGXGXGXGXGXGX",
"GXGXGXGXGXGXGXGXGXGXGXGXGXGXGXGXGXGXDXGXFXAX` 3 1.,. XlXzXq.iX8 I.;.(.*.0 +.# e s B.q GXZXGXGXMXGXGXGXGXGXGXGXGXGXGXGXGXGXGXGXGX",
"GXGXGXGXGXGXGXGXGXGXGXGXGXGXGXGXGXGXFXGXGXAXm < s -.XXhXw.C /.> j fXo.*.w #.k s h ] GXDXFXFXVXGXGXGXGXGXGXGXGXGXGXGXGXGXGXGXGXGX",
"GXGXGXGXGXGXGXGXGXGXGXGXGXGXGXGXDXGXGXGXGXDXAX0X8.j.|.(.M.0.3 >./.iXhXn + & v o.t GXGXGXMXAXGXGXGXGXGXGXGXGXGXGXGXGXGXGXGXGXGXGX",
"GXGXGXGXGXGXGXGXGXGXGXGXGXGXGXGXGXGXGXFXGXGXGXGX] , j.C.5.y s :.p L S @.& GXa . VXAXAXBXDXDXGXGXGXGXGXGXGXGXGXGXGXGXGXGXGXGXGXGX",
"GXGXGXGXGXGXGXGXGXGXGXGXGXGXGXGXGXVXGXGXSXFXSXGXGX] L 7.S.e k j #X[. X*.  FXGXBXGXGXGXFXGXGXmXGXGXGXGXGXGXGXGXGXGXGXGXGXGXGXGXGX",
"GXGXGXGXGXGXGXGXGXGXGXGXGXGXGXGXVXGXGXGXGXGXGXFXZXFXm   9 # 0 o 8 =X0 $ F 4 ` GXDXAXZXGXAXHXGXGXGXGXGXGXGXGXGXGXGXGXGXGXGXGXGXGX",
"GXGXGXGXGXGXGXGXGXGXGXGXGXGXGXGXGXGXGXGXFXGXSXGXGXq %X7X;X6X*X-X~ $X$X5XM .XgX$ & BXVXGXSXGXGXHXGXGXGXGXGXGXGXGXGXGXGXGXGXGXGXGX",
"GXGXGXGXGXGXGXGXGXGXGXGXGXGXGXGXAXGXGXGXGXGXGXGXT W 7X&X&X>XW %X! *X! 0 5X:X_.F ~ ^ & AXGXGXDXGXGXGXGXGXGXGXGXGXGXGXGXGXGXGXGXGX",
"GXGXGXGXGXGXGXGXGXGXGXGXGXGXGXGXGXGXDXGXGXAXGXGX) ,X2X4X&X,X7X4XU y U -X-X=X5X%XW.E.I # VXGXFXAXGXGXGXGXGXGXGXGXGXGXGXGXGXGXGXGX",
"GXGXGXGXGXGXGXGXGXGXGXGXGXGXGXGXAXFXAXGXDXAXFX1 xXCXSX} ! 3X;XW 0 & U e W ! U uX0X2.B.X FXMXGXGXGXGXGXGXGXGXGXGXGXGXGXGXGXGXGXGX",
"GXGXGXGXGXGXGXGXGXGXGXGXGXGXGXGXGXFXGXFXMXGXi jXbXv.aXNX<X$XU 8 FXZXrXwX8 e eXwXI B.M.. GXMXGXGXGXGXGXGXGXGXGXGXGXGXGXGXGXGXGXGX",
"GXGXGXGXGXGXGXGXGXGXGXGXGXGXGXGXDXGXGXGXGXGX% yXOXXX(.{ nX<X..GXFXAXAXMXyX0XrXrX2.C.c i GXDXFXGXGXGXGXGXGXGXGXGXGXGXGXGXGXGXGXGX",
"GXGXGXGXGXGXGXGXGXGXGXGXGXGXGXGXDXAXFXGXDXGX .<X'.hXG.+ eX0XGXCXGXGXCXAXFXAX .  B.V.qXFXCXGXFXGXGXGXGXGXGXGXGXGXGXGXGXGXGXGXGXGX",
"GXGXGXGXGXGXGXGXGXGXGXGXGXGXGXGXGXAXFXDXAXGXDX) *.D.0.o 1XR.GXAXGXFXDXGXGXMXAX5 y.B.wXFXGXSXFXGXGXGXGXGXGXGXGXGXGXGXGXGXGXGXGXGX",
"GXGXGXGXGXGXGXGXGXGXGXGXGXGXGXGXGXGXGXGXAXFXAXi t.G.F a ` DXGXFXGXGXGXGXGXAX# F y.q.rXGXAXGXGXGXGXGXGXGXGXGXGXGXGXGXGXGXGXGXGXGX",
"GXGXGXGXGXGXGXGXGXGXGXGXGXGXGXGXGXAXGXDXNXFXY c t.S...mXCXGXGXmXVXAXGXFXCXMX7 9.M.@ ZXGXGXDXGXAXGXGXGXGXGXGXGXGXGXGXGXGXGXGXGXGX",
"GXGXGXGXGXGXGXGXGXGXGXGXGXGXGXGXGXAXGXGXMXFXY 3.C.r._ BXGXDXGXGXGXGXGXFXCXGX= B.3.& AXGXGXFXDXGXGXGXGXGXGXGXGXGXGXGXGXGXGXGXGXGX",
"GXGXGXGXGXGXGXGXGXGXGXGXGXGXGXGXGXZXGXGXGXZX] e.S.t GXGXAXGXGXGXAXGXAXGXGX: 3.C.7.+ BXMXDXGXZXGXGXGXGXGXGXGXGXGXGXGXGXGXGXGXGXGX",
"GXGXGXGXGXGXGXGXGXGXGXGXGXGXGXGXDXVXSXAXGX7 9X|.J.O GXGXAXGXNXMXFXGXGXGXAX2 z.A.Z.> r - + GXGXFXGXGXGXGXGXGXGXGXGXGXGXGXGXGXGXGX",
"GXGXGXGXGXGXGXGXGXGXGXGXGXGXGXGXGXmXGX'   o * e.c 2 AXSXAXGXGXDXGXCXGXZXFX& z 4.4.3 O e.s.| FXAXGXGXGXGXGXGXGXGXGXGXGXGXGXGXGXGX",
"GXGXGXGXGXGXGXGXGXGXGXGXGXGXGXGXGXGX5 qXL @ hXy z.9 GXFXCXHXGXGXGXAXGXMX= 4 $ 5 5 B V Z % K tXZXGXGXGXGXGXGXGXGXGXGXGXGXGXGXGXGX",
"GXGXGXGXGXGXGXGXGXGXGXGXGXGXGXGXMXAX% [.H l.P.A k.+ GXGXSXDXZXGXDXGXFXGXK J 8.e.7.A J 6.7.' K GXGXGXGXGXGXGXGXGXGXGXGXGXGXGXGXGX",
"GXGXGXGXGXGXGXGXGXGXGXGXGXGXGXGXFXa 6 c.P.l.l.8.q., CXGXAXGXGXGXGXZXGXGXGXY a q R R ) u u a GXGXGXGXGXGXGXGXGXGXGXGXGXGXGXGXGXGX",
"GXGXGXGXGXGXGXGXGXGXGXGXGXGXGXGXGX9XT a i / T p T GXGXGXGXDXMXCXGXGXAXAXNXGXGXGXGXFXFXFXGXVXGXGXGXGXGXGXGXGXGXGXGXGXGXGXGXGXGXGX",
"GXGXGXGXGXGXGXGXGXGXGXGXGXGXGXGXGXMXDXGXVXMXAXFXGXZXmXAXGXFXGXGXGXGXCXDXGXMXDXGXFXAXDXGXGXAXVXFXGXGXGXGXGXGXGXGXGXGXGXGXGXGXGXGX",
"GXGXGXGXGXGXGXGXGXGXGXGXGXGXGXGXGXGXGXGXGXGXGXGXGXGXGXGXGXGXGXGXGXGXGXGXGXGXGXGXGXGXGXGXGXGXGXGXGXGXGXGXGXGXGXGXGXGXGXGXGXGXGXGX",
"GXGXGXGXGXGXGXGXGXGXGXGXGXGXGXGXGXGXGXGXGXGXGXGXGXGXGXGXGXGXGXGXGXGXGXGXGXGXGXGXGXGXGXGXGXGXGXGXGXGXGXGXGXGXGXGXGXGXGXGXGXGXGXGX",
"GXGXGXGXGXGXGXGXGXGXGXGXGXGXGXGXGXGXGXGXGXGXGXGXGXGXGXGXGXGXGXGXGXGXGXGXGXGXGXGXGXGXGXGXGXGXGXGXGXGXGXGXGXGXGXGXGXGXGXGXGXGXGXGX",
"GXGXGXGXGXGXGXGXGXGXGXGXGXGXGXGXGXGXGXGXGXGXGXGXGXGXGXGXGXGXGXGXGXGXGXGXGXGXGXGXGXGXGXGXGXGXGXGXGXGXGXGXGXGXGXGXGXGXGXGXGXGXGXGX",
"GXGXGXGXGXGXGXGXGXGXGXGXGXGXGXGXGXGXGXGXGXGXGXGXGXGXGXGXGXGXGXGXGXGXGXGXGXGXGXGXGXGXGXGXGXGXGXGXGXGXGXGXGXGXGXGXGXGXGXGXGXGXGXGX",
"GXGXGXGXGXGXGXGXGXGXGXGXGXGXGXGXGXGXGXGXGXGXGXGXGXGXGXGXGXGXGXGXGXGXGXGXGXGXGXGXGXGXGXGXGXGXGXGXGXGXGXGXGXGXGXGXGXGXGXGXGXGXGXGX",
"GXGXGXGXGXGXGXGXGXGXGXGXGXGXGXGXGXGXGXGXGXGXGXGXGXGXGXGXGXGXGXGXGXGXGXGXGXGXGXGXGXGXGXGXGXGXGXGXGXGXGXGXGXGXGXGXGXGXGXGXGXGXGXGX",
"GXGXGXGXGXGXGXGXGXGXGXGXGXGXGXGXGXGXGXGXGXGXGXGXGXGXGXGXGXGXGXGXGXGXGXGXGXGXGXGXGXGXGXGXGXGXGXGXGXGXGXGXGXGXGXGXGXGXGXGXGXGXGXGX"
};
