/* XPM */
static char *Luffy_standing1694901125[] = {
/* columns rows colors chars-per-pixel */
"64 64 245 2 ",
"   c None",
".  c #020203",
"X  c #0B0504",
"o  c #090804",
"O  c #140504",
"+  c #1C0B04",
"@  c #180804",
"#  c #1A110A",
"$  c #230604",
"%  c #2C0904",
"&  c #280804",
"*  c #330A04",
"=  c #3B0C04",
"-  c #300404",
";  c #2D1304",
":  c #251505",
">  c #3B1B05",
",  c #361704",
"<  c #231A12",
"1  c #3A2607",
"2  c #392715",
"3  c #161D39",
"4  c #332F2F",
"5  c #261D33",
"6  c #470A03",
"7  c #590C02",
"8  c #4C1204",
"9  c #431D04",
"0  c #481803",
"q  c #541304",
"w  c #5A1704",
"e  c #760001",
"r  c #631603",
"t  c #651904",
"y  c #6E1405",
"u  c #452105",
"i  c #4C2304",
"p  c #4A2907",
"a  c #512504",
"s  c #5E2204",
"d  c #552904",
"f  c #5D2C03",
"g  c #542C0A",
"h  c #4C3807",
"j  c #583904",
"k  c #462B13",
"l  c #563817",
"z  c #4F3115",
"x  c #622E05",
"c  c #6A2805",
"v  c #653306",
"b  c #693607",
"n  c #7B3C06",
"m  c #753A07",
"M  c #663B17",
"N  c #733F13",
"B  c #732C03",
"V  c #463527",
"C  c #6E382C",
"Z  c #61133E",
"A  c #5C4512",
"S  c #664904",
"D  c #7B4608",
"F  c #755406",
"G  c #6A4616",
"H  c #75441B",
"J  c #794517",
"K  c #715413",
"L  c #594734",
"P  c #5C4A35",
"I  c #664527",
"U  c #774925",
"Y  c #7A5628",
"T  c #6E5336",
"R  c #7A6423",
"E  c #7D610F",
"W  c #292F53",
"Q  c #0A0F5D",
"!  c #6A3146",
"~  c #5A3841",
"^  c #384679",
"/  c #4D4B49",
"(  c #705647",
")  c #534676",
"_  c #786867",
"`  c #7B7978",
"'  c #6B666B",
"]  c #796452",
"[  c #830303",
"{  c #990606",
"}  c #9F1412",
"|  c #A90A08",
" . c #B60C0B",
".. c #AF1412",
"X. c #833E07",
"o. c #BD2423",
"O. c #C31715",
"+. c #D1211F",
"@. c #DA3B39",
"#. c #D62A26",
"$. c #E12C28",
"%. c #864808",
"&. c #8D5B05",
"*. c #865508",
"=. c #935A09",
"-. c #824B1A",
";. c #884914",
":. c #865416",
">. c #96571C",
",. c #8A6508",
"<. c #9B6B0A",
"1. c #956909",
"2. c #9F700A",
"3. c #996B15",
"4. c #9D761A",
"5. c #89621C",
"6. c #A3750A",
"7. c #A37315",
"8. c #885827",
"9. c #955C28",
"0. c #845938",
"q. c #955F31",
"w. c #88662B",
"e. c #99632C",
"r. c #996635",
"t. c #906F32",
"y. c #A4672C",
"u. c #A37627",
"i. c #A66D35",
"p. c #A87239",
"a. c #B17A32",
"s. c #8B2E4E",
"d. c #A54343",
"f. c #866449",
"g. c #986C47",
"h. c #987550",
"j. c #AB7648",
"k. c #B67D45",
"l. c #A77D5B",
"z. c #A06F43",
"x. c #8D7B6F",
"c. c #855E43",
"v. c #C54745",
"b. c #DC4B4A",
"n. c #E14E4C",
"m. c #D16766",
"M. c #C47E7E",
"N. c #B58529",
"B. c #BD9226",
"V. c #BA8D36",
"C. c #AE8B34",
"Z. c #B38813",
"A. c #C69C34",
"S. c #C09628",
"D. c #CBA339",
"F. c #D6AC3B",
"G. c #BC834D",
"H. c #AB815A",
"J. c #B48453",
"K. c #BC8756",
"L. c #B89648",
"P. c #988575",
"I. c #A78365",
"U. c #B68B65",
"Y. c #B99373",
"T. c #BFAA7A",
"R. c #C38C56",
"E. c #C58F5A",
"W. c #C79455",
"Q. c #C4A344",
"!. c #D5B248",
"~. c #DDB446",
"^. c #D4AB44",
"/. c #E2BA47",
"(. c #CB9969",
"). c #D39D69",
"_. c #C59B77",
"`. c #D39E72",
"'. c #D7A16C",
"]. c #DCAA7A",
"[. c #D8A576",
"{. c #D3AF6B",
"}. c #E2AD7B",
"|. c #E4B770",
" X c #E8C048",
".X c #F5CC54",
"XX c #EECA6F",
"oX c #2837B2",
"OX c #262992",
"+X c #354599",
"@X c #45589A",
"#X c #615092",
"$X c #7C7A85",
"%X c #475AB1",
"&X c #5368B5",
"*X c #6B79BB",
"=X c #6573AD",
"-X c #333BD7",
";X c #465AD1",
":X c #6578CD",
">X c #4A5DF4",
",X c #5B70ED",
"<X c #6575EF",
"1X c #5D67D2",
"2X c #876A9B",
"3X c #7A85BB",
"4X c #6E85F1",
"5X c #6880DB",
"6X c #8E8B89",
"7X c #B49D91",
"8X c #B7A48D",
"9X c #9698A6",
"0X c #B8B7B9",
"qX c #B1AAA7",
"wX c #D68F8E",
"eX c #DE9A9A",
"rX c #CC9F9F",
"tX c #CBA586",
"yX c #D3AF8E",
"uX c #EEB988",
"iX c #E8B485",
"pX c #F3BF8E",
"aX c #ECBD93",
"sX c #CFB5B0",
"dX c #F6C292",
"fX c #FFCC9D",
"gX c #F5C497",
"hX c #EECD8F",
"jX c #D7C5B5",
"kX c #CDC4B9",
"lX c #E8C9A5",
"zX c #FACDA5",
"xX c #E7D0BA",
"cX c #AEAFDD",
"vX c #939CF5",
"bX c #9BA4E4",
"nX c #929FEB",
"mX c #BDC1D9",
"MX c #CAC7C7",
"NX c #D6C6C3",
"BX c #D6D1CE",
"VX c #D0CDDE",
"CX c #E8D5C6",
"ZX c #CCCFEE",
"AX c #F6E0D0",
/* pixels */
"                                                                                                                                ",
"                                                                                                                                ",
"                                                                                                                                ",
"                                                                                                                                ",
"                                                                                                                                ",
"                                                    1 l P / / A A 1 1 , 1 #                                                     ",
"                                              . O 0 F G._.0XT.Q.4.E ,.D v q = o .                                               ",
"                                            9 p A 5.S./.hXAXhX XZ.Z.6.=.n B s u = *                                             ",
"                                          > v %.,.Q. X.XXXXX|.A.Z.6.,.%.%.X.m m c 8 &                                           ",
"                                        u v *.1.,.C.Q.Q.!.L.Z.,.,.F b c v v b c t q 0 *                                         ",
"                                      o u D ,.1.F A A R R C.w.R R R R R K A p q 7 7 8 * .                                       ",
"                                      o , g S G G E Z.Q.!.Q.!.!.!.!.!.^.D.4.*.b a > = $ X                                       ",
"                                      S E C.P.6X7XT.Q./. X X X/. X X X X/.D.N.4.u.t.K j i                                       ",
"                                : 1 R h.L.XXxXBXBXlX XD.B.B.B.B.B.B.B.B.D./.A.B.!.D.7.=.D g 1 ;                                 ",
"                              , h 4.{.yXlXXXiXqX7X8XL.u.&.&.&.&.&.&.&.&.7.V.u.u.V.N.7.2.<.,.F x u                               ",
"                            = G C.D.XXjXxX|.R.q.C C M x s s c w s s s s c b B m %.;.*.<.6.2.<.*.v >                             ",
"                          > M u.^.~.Q.U.l.g.:.c r 7 7 6 - - * = - - - - 6 7 r t t c B n D *.<.<.*.v ,                           ",
"                        9 G u.D.F.A.1.%.B t 7 8 8 8 8 - . @ u a ; . . . % 6 8 8 q w r t r c %.<.<.*.v 9                         ",
"                      o d >.D.^.A.3.m c t 7 6 $ + * , : + 9 J ;.M 2 X . & , ; + & 0 w w r r c D <.<.*.g o                       ",
"                      # S <.N.N.3.m t 6 = = & . @ a v u 9 N e.p.p.Y 1 X u b a + . $ * = 8 r t c %.1.1.S #                       ",
"                      S *.<.=.m c q 8 % o . o . + x n a M e.R.'.'.K.Y 2 u b v i & . o o * 8 w t c *.<.*.S                       ",
"                    h 1.2.=.n c = & & @ . . . X ; x m g Y G.}.dXdX].K.Y 2 u b B i + o . @ % q r r n =.2.,.h                     ",
"                    h 1.6.%.w = @ . . . . . . , f b d 1 f.].dXfXfXgX].K.Y k b X.m i + . . X * 8 r t %.6.2.h                     ",
"                    h ,.1.b = $ % $ X . ; > ; z -.H u l I.aXfXfXfXfXgX'.i.l f J >.H , . @ % $ % 8 r n 2.1.A                     ",
"                    u D D a & % 8 = @ o p b a M r.8.l w.(.dXfXfXfXfXdX'.p.z ; G p.w.2 . * 8 = $ & 0 D 2.1.h                     ",
"                    , v v f a 8 8 = O o d n x M e.8.d Y J.].dXfXfXdX].H.Y > . I p.r.2 . % 8 8 = ; S *.,.E h                     ",
"                      ; d m v q * O . X d n f g -.f.' _ I._.uXfXfXuX(.l.' ' / A i.e.2 . X % 8 q , F ,.F 1                       ",
"                        u a 0 = @ . . X a n v M z.8XkXMXsXaXdXfXfXdXaXkXMX0X6XL 8.U > . . + 8 7 * h S A                         ",
"                          X X o . . . . a X.-.h.8XsXNXMXjXzXfXfXfXfXzXxXMXsXqX6Xh.J , . . @ = 8 % o @                           ",
"                                . . < V I ;.y._.NXkXP._ Y.aXfXfXfXfXaX_.x.` 0XMX_.w.k V V < + &                                 ",
"                                . . L I.U.r.y.tXCX0X( $ h.aXfXfXfXzXaXl.6 / 0XBXtXe.T I.I.L .                                   ",
"                                . . T _.`.z.a.wXCXkX6X$X7XlXfXfXfXfXgX7X` 6XsXCXtXe.T _._.T                                     ",
"                                  . I J.R.y.i.(.lXxXBXBXCXzXfXfXfXfXzXNXBXBXCXlX(.r.T J.J.I                                     ",
"                                    k 8.i.y.i.G.}.lXAXAXxXzXfXfXfXfXzXlXjXsXrX(.k.y.e.r.8.k                                     ",
"                                    9 J 9.i.y.y.G.].gXzXzXfXfXfXfXfXgXiX_.k.z.q.>.e.i.9.J >                                     ",
"                                      a M J -.;.y.k.[.dXfXfXfXfXfXfXfXpX[.k.>.%.%.-.U M i                                       ",
"                                        X , f m m 9.k.`.iXuXuXuXuXuXiXiX`.k.9.m m f ; X                                         ",
"                                            > p g J >.r.j.K.R.R.R.E.R.j.r.>.N z p 9                                             ",
"                                          ; s H 8.U x s M 8.w.:.8.8.Y N s c 8.q.J d ;                                           ",
"                                          g J i.E.l.l 6 y C _ 2X` _ C 7 6 k q.i.e.H ,                                           ",
"                                      X i D y.E.iXU.C e  .v.rXNXMX7Xd.| e q U y.p.8.z 4 2 2                                     ",
"                                      . a ;.i.R.(.l.C } +.b.eXsXsXwXv. .{ q b -.q.q.t.H.l.f.I                                   ",
"                                      z U z.k.a.i.U y o.$.@.m.M.M.m.@.O.{ y c -.0.g.J.].}.E.r.k                                 ",
"                                    l q.K.].).k.Y y } #.$.n.eXNXNXeXb.O.| } y c.Y.U.g.U.].iXK.U 9                               ",
"                                    l i.'.gXuX(.T e ..#.$.n.eXNXNXeXb. . .| e f.`.Y.c.K.iXdX`.q.g .                             ",
"                                    z i.).pXaX[.c.e  .+.$.@.m.M.M.m.@.O.| | e I H.a.z.].dXdX'.p.l .                             ",
"                                    p 8.R.`.[.U.T 6 { ..+.n.wXsXsXwXv. .| [ 6 k Y e.G.iXdX}.R.q.l .                             ",
"                                    > b 9.j.r.N V W ) s. .v.tXkXNXrXd.{ s.) W < 1 Y J.].}.R.y.N u                               ",
"                                      9 z M g > 5 @X:X#XZ ! _ 3X2X_ ~ Z #X:X%X3   l Y J.R.e.J u                                 ",
"                                        . . . . 3 &X4X;XoX&X&X%XoXoX%XoX;X4X&X3     l 0.8.N a                                   ",
"                                                ^ 3XnX<X,X5X4X4X>X,X,X>X>X4X*X'       k 1 ,                                     ",
"                                              +X:XbXZXZXcX3X5X4X4X1X&X,X,X<XbXqX`                                               ",
"                                            . OX,XbXcXkX0X9X3X5X:X&X3XnXbXvXmXcX`                                               ",
"                                            . OX-X1X$Xx.9XkX9X) +X%X5XmXVXVX0X'                                                 ",
"                                              Q OX2XwX_.T.9X6X    @X3X9XqXsXP.4                                                 ",
"                                                ~ l.yXgX].]         3 4 f.U.g.2                                                 ",
"                                                ;.p.).pX].(           : h.[.H.V                                                 ",
"                                              x %.>.k.).(.0.0         g h.`.l.M ,                                               ",
"                                            . u X.>.y.k.j.>.f +     g -.p.R.k.-.f >                                             ",
"                                            . u X.9.p.y.>.;.f + # d J y.E.}.).j.-.f ;                                           ",
"                                              9 N e.N.9.X.m d + + s N e.E.].(.i.-.f ;                                           ",
"                                                u :.4.*.s 9         a M e.k.t.N i >                                             ",
"                                                  S F j =             = j S v > $                                               ",
"                                                    : + @             O : : : O                                                 "
};
