/* XPM */
static char *wall1694095276[] = {
/* columns rows colors chars-per-pixel */
"64 64 251 2 ",
"   c #503C6E",
".  c #753D66",
"X  c #76465C",
"o  c #584869",
"O  c #5A4E72",
"+  c #524A70",
"@  c #664569",
"#  c #754463",
"$  c #7A4363",
"%  c #7B4A64",
"&  c #77496A",
"*  c #7F5268",
"=  c #694972",
"-  c #775575",
";  c #694B78",
":  c #7E6571",
">  c #76635D",
",  c #B8532A",
"<  c #BA4F35",
"1  c #AC513B",
"2  c #BC5434",
"3  c #B3523D",
"4  c #BD5339",
"5  c #BC5D3F",
"6  c #AE4831",
"7  c #D3570F",
"8  c #CE5A1D",
"9  c #CC5717",
"0  c #D35615",
"q  c #D25914",
"w  c #D1551B",
"e  c #D2591B",
"r  c #D95714",
"t  c #D46119",
"y  c #CC5521",
"u  c #CD5A21",
"i  c #C85729",
"p  c #D25B22",
"a  c #D45824",
"s  c #C55437",
"d  c #C54D31",
"f  c #D56423",
"g  c #D86828",
"h  c #DC722D",
"j  c #DA7534",
"k  c #D26939",
"l  c #E5792B",
"z  c #E67C33",
"x  c #843D5B",
"c  c #88465B",
"v  c #964758",
"b  c #89575A",
"n  c #935155",
"m  c #A84B49",
"M  c #B84E45",
"N  c #B35241",
"B  c #B75448",
"V  c #A85451",
"C  c #97625D",
"Z  c #8F6E5F",
"A  c #B86547",
"S  c #A96758",
"D  c #B46D58",
"F  c #864A64",
"G  c #835464",
"H  c #8A5664",
"J  c #825965",
"K  c #8A566A",
"L  c #83596B",
"P  c #885869",
"I  c #8D596E",
"U  c #A85B65",
"Y  c #AF4C61",
"T  c #896769",
"R  c #926D6D",
"E  c #94726B",
"W  c #866671",
"Q  c #936E71",
"!  c #937577",
"~  c #8F766F",
"^  c #A46465",
"/  c #BC6866",
"(  c #AF726F",
")  c #C56E48",
"_  c #CD794E",
"`  c #C87749",
"'  c #D57B48",
"]  c #CC7A52",
"[  c #C57756",
"{  c #D67C56",
"}  c #C47B6D",
"|  c #C77968",
" . c #C47C74",
".. c #C67975",
"X. c #D07467",
"o. c #C05146",
"O. c #EB8535",
"+. c #EC8A35",
"@. c #E4863B",
"#. c #EC853A",
"$. c #E6893B",
"%. c #EB893B",
"&. c #E68536",
"*. c #F28839",
"=. c #F4953D",
"-. c #E4802B",
";. c #B28366",
":. c #B28159",
">. c #DF8447",
",. c #D48755",
"<. c #D99B5A",
"1. c #D28A4E",
"2. c #EA8A44",
"3. c #E88644",
"4. c #F18C40",
"5. c #ED964A",
"6. c #F49544",
"7. c #F49944",
"8. c #E49B59",
"9. c #F39A54",
"0. c #DCA15F",
"q. c #E7A45D",
"w. c #FAAA57",
"e. c #FFA54E",
"r. c #C68C66",
"t. c #D4866A",
"y. c #D5876B",
"u. c #DC9D66",
"i. c #D58976",
"p. c #DD9473",
"a. c #DA987B",
"s. c #C58F75",
"d. c #E29D66",
"f. c #E39575",
"g. c #DDA16C",
"h. c #DEA364",
"j. c #E3A26D",
"k. c #FCAD64",
"l. c #E6A177",
"z. c #775F83",
"x. c #5B6A91",
"c. c #7A7B97",
"v. c #76738F",
"b. c #6D7BAA",
"n. c #7C7BA2",
"m. c #8B7786",
"M. c #947A89",
"N. c #867D99",
"B. c #987896",
"V. c #8D6C8D",
"C. c #AD7688",
"Z. c #9079A5",
"A. c #7C869C",
"S. c #79838F",
"D. c #7B87A8",
"F. c #7F91B9",
"G. c #6F85B5",
"H. c #83859C",
"J. c #8B849C",
"K. c #848B9B",
"L. c #8D8295",
"P. c #9C8698",
"I. c #9D928C",
"U. c #A6848A",
"Y. c #A48897",
"T. c #B59288",
"R. c #8484A1",
"E. c #838AA2",
"W. c #8B88A3",
"Q. c #8886A6",
"!. c #8493BC",
"~. c #8B98B9",
"^. c #8C96AE",
"/. c #A99CB7",
"(. c #B49DBA",
"). c #B69EB5",
"_. c #A78EA7",
"`. c #9DA5B7",
"'. c #9EA7AE",
"]. c #A5A7AE",
"[. c #A8A6BA",
"{. c #B4A3B4",
"}. c #BCA9B6",
"|. c #B3A3BB",
" X c #BAA4BA",
".X c #B9A9B7",
"XX c #B8B8BD",
"oX c #C58786",
"OX c #CA9584",
"+X c #DA9583",
"@X c #CA8F91",
"#X c #D9A594",
"$X c #EFB396",
"%X c #C6AFB4",
"&X c #8A99C3",
"*X c #9B9EC1",
"=X c #A59FC1",
"-X c #9CA6CB",
";X c #97A8C9",
":X c #99A9D2",
">X c #94A9C9",
",X c #A8A8C2",
"<X c #A7B6CD",
"1X c #B7B7C6",
"2X c #A1AFD3",
"3X c #A4B4D3",
"4X c #A7B7D8",
"5X c #B6B0CC",
"6X c #A2B7E2",
"7X c #CCBAD1",
"8X c #BAC7D2",
"9X c #B4C6EB",
"0X c #BED5FF",
"qX c #B3C8F1",
"wX c #C6CCCF",
"eX c #C4CDD4",
"rX c #CACDD5",
"tX c #C5CDDB",
"yX c #CACDD9",
"uX c #CBC3DA",
"iX c #C5D2DB",
"pX c #CBD3DC",
"aX c #CAD5D8",
"sX c #D2D5DC",
"dX c #D2D8D9",
"fX c #D1CDDE",
"gX c #C8CBE3",
"hX c #D6CAE4",
"jX c #CBD7E4",
"kX c #D3D4E2",
"lX c #D4DAE5",
"zX c #C4D5FF",
"xX c #C0CFFA",
"cX c #DEE5EB",
"vX c #DEEAEC",
"bX c #DBE3E8",
"nX c #DEEAF3",
"mX c #DAF2ED",
"MX c #E3E6EC",
"NX c #EAE6ED",
"BX c #E4EAEE",
"VX c #E9EAEE",
"CX c #E6E7E6",
"ZX c #E5E6F2",
"AX c #EAE6F3",
"SX c #E5EAF0",
"DX c #E9EBF3",
"FX c #E6EAF9",
"GX c #E5F2F4",
"HX c #E9EDEE",
"JX c #E5DFED",
/* pixels */
"SXSXSXSXSXSXBXSXSXSXSXSXSXSXSXSXSXSXSXSXSXSXSXSXSXSXSXSXSXSXSXSXBXSXAXBXSXSXSXSXSXSXSXSXSXSXSXSXSXSXSXSXSXSXSXSXBXAXBXSXSXSXSXSX",
"SXSXSXBXSXSXAXBXSXSXSXSXSXSXSXSXSXSXBXSXSXSXSXSXSXSXSXSXSXSXSXSXSXSXBXSXSXSXSXSXSXSXBXSXSXSXSXSXSXSXSXSXSXSXSXSXSXBXSXSXSXSXSXSX",
"SXSXSXSXSXSXSXSXSXSXSXSXSXSXBXSXSXSXSXSXSXSXSXBXSXSXSXBXSXSXBXSXSXSXSXSXSXSXSXSXSXSXSXSXSXSXSXBXSXSXSXBXSXSXBXSXSXSXSXSXSXSXSXSX",
"SXSXSXSXSXSXSXSXSXSXSXBXSXSXSXSXSXSXSXSXSXSXSXSXSXSXSXSXSXSXSXSXSXSXSXSXSXSXBXSXSXSXSXSXSXSXSXSXSXSXSXSXSXSXSXSXSXSXSXSXSXSXBXSX",
"SXSXSXSXSXBXSXBXSXSXSXSXSXSXSXSXSXSXSXBXSXSXSXSXSXSXSXSXSXSXSXSXSXBXSXSXSXSXSXSXSXSXSXSXSXSXSXSXSXSXSXSXSXSXSXSXSXSXSXSXSXSXSXSX",
"BXSXSXSXSXSXSXSXSXSXSXBXSXSXAXBXSXSXSXSXSXSXSXSXSXSXSXSXSXSXSXSXSXAXBXSXSXSXSXSXSXSXSXSXSXSXSXSXSXSXSXSXSXSXSXSXSXSXBXSXSXSXSXSX",
"SXSXSXSXSXSXSXSXSXSXSXSXSXSXBXSXSXSXSXSXSXSXSXSXSXSXSXSXBXSXSXSXSXSXSXSXSXSXSXBXSXSXSXSXSXSXSXSXSXSXSXSXBXSXSXSXSXSXSXSXSXSXSXBX",
"SXSXSXSXSXSXSXSXSXSXSXSXSXSXSXSXSXSXSXSXSXSXSXSXSXBXSXSXAXBXSXSXSXSXSXSXSXSXSXSXSXSXSXSXSXSXSXSXSXBXSXSXSXSXSXSXSXSXSXSXSXSXBXAX",
"SXSXSXBXSXSXSXSXAXSXBXMXSXSXSXSXvXDXAXCXVXnXGXBXNXAXVXFXSXBXZXVXFXCXGXnXBXDXFXBXBXBXNXMXBXBXvXDXSXSXSXBXSXSXSXSXSXSXSXSXSXBXAXBX",
"SXSXSXSXSXSXBXSXSXSXSXBXSXSXSXSXVXSXNXBXkXtXyXrXwXiXeXtXtXwXjXeXyXeXwXrXwXwXiXwXtXlXMXBXZXZXSXnXSXSXSXSXSXBXSXSXSXSXSXSXSXSXSXSX",
"SXSXSXSXSXSXSXSXSXBXBXSXSXSXSXSXnXnXmXiX`.K.A.E.D.F.E.Q.Q.A.D.D.D.Q.W.W.D.D.^.D.K.'.aXBXSXZXGXBXSXSXSXSXSXSXSXSXSXSXSXSXSXSXSXSX",
"SXSXSXSXSXSXSXSXGXBXSXAXSXSXSXSXFXSXpX1XY.E T T O o > Q R T = O > Q R T o o : R Q I.XXpXvXAXHXBXSXSXSXSXSXSXSXSXBXSXSXSXSXSXSXSX",
"SXBXSXSXSXSXSXSXSXSXBXDXSXSXSXSXVXdX[.Y.OXg.h.r.W J r.h.u.;.T W r.j.d.r.T J ;.k.f.OXY.1XlXDXZXZXSXBXAXBXBXSXSXSXSXSXSXSXSXSXSXSX",
"SXSXSXSXSXSXSXSXDXMXSXGXBXDXSXcXaX1X! D <.w.q.s.^ D q.w.k.<.C W 8.k.q.<.( ^ r.j.e.8.;.I.%XrXcXSXSXSXSXSXSXSXSXSXSXSXSXSXBXSXSXSX",
"SXSXSXSXSXSXSXSXSXMXSXSXMXDXSXsX,XM.^ ) @.<.D ( [ ] 5.7.9.,.C H ,.5.5.5.1.D D :.1.<.g.a.I.'.lXBXSXSXSXSXSXSXSXSXBXAXSXSXBXSXSXSX",
"SXSXSXSXSXSXSXSXSXSXDXSXMXSXMXaXK.# U X...T.M.m.oX+Xp.p.f.T.M.N.oXp.p.p.f.oXL.L.@X$X$X#Xm.Q.jXMXSXSXSXSXSXSXSXSXSXBXSXSXSXSXSXSX",
"BXSXBXSXSXSXSXSXGXMXMXDXDXDXBXeXH.O V._./.|.,X`. X X.X.X.X[./.`.{.|..X.X.X|./.,XuXfXsX1XS.K.yXZXSXDXMXBXSXSXSXMXSXSXSXSXSXSXSXSX",
"SXSXSXSXSXSXSXSXSXZXSXSXMXbXlX1XD.x.b.F.&X-X:X>X-X-X-X-X-X:X:X:X2X4X3X3X4X:X6X6X9XxXzXqX&X~.4XhXbXDXBXMXSXSXSXSXSXSXSXSXSXSXSXSX",
"SXSXSXSXBXAXSXSXZXSXBXBXnXpX,XH.c.b.G.G.F.&X&XF.!.!.&XF.!.&X!.&X-X3X3X2X:X3X3X4X4XqX0XzX9X<X'.'.sXDXSXSXSXSXSXSXSXSXSXSXSXSXSXSX",
"SXSXSXSXSXBXSXSXAXDXBXBXSXtXE.O V.J.P.P.Y.Y.Y.B.P.P.B.Y.P.Y.Y.Y.).}.}. X}.}.%X(.{.7X7XhXhX7Xc.E.rXSXGXMXDXSXSXMXSXSXSXSXSXSXSXBX",
"SXSXSXSXSXSXSXSXZXFXSXVXSX8XH.; U | | y.t.X.i.y.t.t.y.t.y.r.t.y.i.p.a.a.+Xp.p.a.p.a.a.$X$X%Xm.Q.eXBXSXMXSXSXSXSXSXSXSXBXSXSXSXSX",
"SXBXSXSXSXSXSXSXDXSXSXDXFXiXJ.& N k z 3.{ ' 3.2.#.3.3.#.%.@.' { 3.$.$.3.2.+.&.3.{ ' $.=.w.u.T K.aXBXDXBXSXSXSXSXSXSXSXSXSXSXSXSX",
"SXSXSXSXSXSXSXSXAXvXvXAXSX8XL.x < g -.3.S S _ O.+.O.*.+.O.j D S ' $.O.#.3.+.$.' S A ' 6.w.d.E J.rXMXSXDXGXBXSXSXSXSXSXSXSXSXBXSX",
"SXSXSXSXSXSXSXBXSXmXSXJXsX8XM.F 4 f -.[ b H [ *.%.#.*.%.5.D n - ' %.+.z #.+.@.1.* b D 5.e.8.;.I.1XdXcXBXDXBXDXBXSXSXSXSXSXSXSXSX",
"SXSXSXBXSXBXSXSXGXvXBXlX`.M./ , 8 g z ] H b ] $.%.%.O.O.*.] G K _ #.%.+.#.+.#._ L H ] *.2.5.q.s.T.`.lXSXSXVXSXSXSXSXSXSXSXSXSXSX",
"SXSXBXDXSXSXSXSXBXSXBXeXA.& B i y f j ) F H ] %.%.%.O.+.*._ G K _ #.%.#.%.%.#._ J H [ +.2.5.w.g.! E.pXMXnXSXSXBXBXSXSXSXBXSXSXSX",
"SXSXSXSXSXSXSXSXSXSXDXyXR.# M u e 8 g B F G ] O.#.$.O.%.#.] J K _ #.#.#.#.#.#._ J H ` +.$.7.w.j.T A.rXMXGXAXSXMXAXSXSXSXSXSXSXSX",
"SXSXSXSXSXSXSXSXBXBXAXtXQ.F M q e e e B $ F [ z &.$.O.%.#.] J K _ #.#.O.%.#.#._ L H ] O.%.7.w.h.Q R.iXSXSXVXnXMXBXSXSXSXBXSXSXSX",
"SXSXSXBXSXSXAXBXBXBXDXtXD.X 3 q e e y N . $ A l z %.+.%.%.] J K _ #.%.%.O.%.#._ L H ] #.2.7.w.d.R K.rXMXnXAXSXSXSXBXSXSXSXSXSXSX",
"SXBXSXSXSXSXBXSXBXSXDXiXD.X M q e e w N $ $ N e l @.O.%.*.] G K _ #.+.#.%.%.#._ L K [ #.#.6.w.u.R D.iXMXSXAXSXSXSXSXSXSXSXSXSXSX",
"SXSXSXSXSXSXSXSXSXnXMXtXK.$ M w e e e 3 $ $ 3 p f h z #.4.] J K _ #.%.O.#.%.#._ L H [ #.#.7.w.h.R K.iXVXSXSXSXBXSXSXSXSXDXBXSXSX",
"SXSXSXSXSXSXSXSXDXSXDXyXH.X M a 8 e e 3 % # N p w f h z z ] J P _ #.%.%.O.#.#._ G H ] #.2.7.w.h.R E.yXBXSXBXSXVXSXSXSXSXBXSXSXSX",
"SXSXSXSXSXSXSXSXBXSXFXyXK.X B y 8 8 y N $ X N p e u t h #.] J K _ *.%.%.#.2.#._ L G ] O.2.6.w.h.R H.iXSXDXvXDXnXSXSXSXSXSXSXSXSX",
"SXSXSXSXSXSXSXSXBXSXAXtXA.X M 9 0 w a N $ $ 3 w e u q g h ) * I _ #.%.#.#.%.#._ K H ,.&.2.6.w.j.R H.tXBXDXMXDXSXSXSXSXSXSXSXSXBX",
"SXSXSXSXSXSXSXBXGXBXDXtXE.# M w q 0 w N $ $ 3 w q 8 0 e a 5 X L _ #.$.%.%.%.#._ H K _ O.2.6.w.0.R N.iXAXSXvXAXSXSXSXBXSXSXSXSXSX",
"AXBXSXBXSXSXSXSXBXMXBXtXR.# N r q w w N $ $ M w e u r e a 4 # * ) &.&.#.#.+.O._ L K ] #.z 6.w.h.Q H.iXBXSXMXSXBXSXSXSXSXSXSXSXSX",
"BXSXSXSXSXSXSXSXSXSXSXeXJ.% m 0 y 8 8 N # . N w 8 y 8 8 p N # % B j z #.#.%.#.] L K [ 4.+.7.k.g.! W.aXCXZXSXZXBXSXSXSXSXSXSXBXSX",
"SXSXSXSXSXSXSXSXnXZXDXaX{.M.S 2 i y 8 3 $ . N 8 e 8 8 w w 3 # . 2 f j z #.2.#.] L G ] 4.5.7.j.OXI.,XdXCXnXGXSXBXSXSXSXSXSXSXSXSX",
"SXSXSXSXSXSXBXAXBXDXSXbXsX1XM.V 2 i 0 2 F x 3 q r 8 q q 0 < X F < e f l z *.O._ n n ` =.9.8.:.Y.%XjXnXCXSXGXSXBXSXSXDXBXSXSXSXSX",
"SXBXSXSXBXSXSXBXBXAXnXvXSXjXH.$ d 9 r 2 v c 2 7 r 9 7 q 0 s c v 4 e 7 q l -.l ` C R >.=.k.h.T R.wXFXmXNXFXnXFXvXSXBXBXSXSXSXSXSX",
"SXSXSXSXSXSXSXSXBXSXSXvXvXrXL.= 2 y u d o.s i a a y u a y i s 4 p w y a p f g k ) ' 3.4.k.g.~ R.aXSXSXMXSXSXDXSXSXSXBXSXSXSXSXSX",
"SXSXSXSXSXSXSXSXSXZXDXSXvXtXH.; ^ / X..... .} ..| | } .... .....} .. . .} .. .s.i.+X+X$X$X#Xm.D.eXSXSXSXDXMXSXSXSXSXAXBXSXSXSXSX",
"SXSXSXSXSXSXBXAXSXSXDXDXSXiXE.O V.P./.(.{.{.|.(.(.(.(.(.|.{.).).(.|.(.|.(.(.(.,X}.%XuXhXkX1Xc.Q.rXMXSXSXSXMXSXSXSXSXSXSXSXSXSXSX",
"SXSXSXBXSXSXSXBXMXBXAXAXDXlX[.c.b.D.&X:X;X>X-X2X:X:X:X-X;X;X-X:X:X3X3X2X2X4X5X4X4X9XzX0X9X<X^.[.sXBXSXSXSXSXSXSXSXSXSXSXSXSXSXBX",
"SXSXSXSXSXSXSXSXBXVXBXCXBXcXlX<XG.x.Q.^.!.!.!.&X!.!.!.~.!.!.!.&X:X3X<X<X3X3X2X4XqX0XzXxX~.`.1XsXcXSXSXBXSXSXSXSXSXSXDXBXSXSXSXSX",
"SXSXSXSXSXSXSXBXBXSXBXBXBXBXvXiXc.O V.B.B.Z.c.b.N.B.B.Z.Z.Z.c.D./.[.{.).[.=X`.-X5XhX7X5Xv.N.tXSXBXSXSXSXSXDXSXBXSXSXBXSXSXSXBXSX",
"SXSXSXBXSXSXSXSXBXSXSXGXBXBXvXpXW.- I / / ^ - - U / / / / ^ L z.( .. .| ( C.V.B.@X@XoXC.z.J.tXSXSXSXSXSXBXSXSXBXSXSXSXSXSXSXSXSX",
"SXSXSXSXSXSXSXSXZXZXnXSXBXVXZXjX`.M.U d k < v F m d 9 w a N c & < i w y s B v c 4 s o.S m.[.jXVXSXMXSXSXBXSXDXSXSXSXSXSXSXSXSXSX",
"SXBXSXSXSXSXSXSXSXSXSXSXSXBXSXBXdX1XB.v 2 u 2 m c v s 7 q 3 x $ 6 8 7 , v F m i a 6 b B.1XlXcXvXSXSXSXSXSXSXSXSXSXBXSXBXSXSXSXSX",
"BXDXSXSXSXSXSXSXSXSXSXSXSXBXBXSXmXjX1XM.S 3 B Y @ . v 1 3 v .   v N M m . . c B M S M.XXkXDXSXSXSXSXSXSXSXSXSXSXBXAXSXSXSXSXSXSX",
"BXSXSXSXSXBXSXSXSXSXSXSXSXSXSXSXDXcXjX1Xm.X X $     = X X =   o @ # X @     @ X X B.1XsXcXBXZXFXSXSXSXSXSXSXSXSXSXSXSXSXSXSXSXSX",
"SXSXSXSXSXSXSXSXBXSXSXSXSXSXSXBXAXSXnXlX[.W.J.H.A.D.Q.J.J.Q.N.K.Q.W.K.H.D.D.K.J.H.|.jXvXvXCXAXFXSXSXSXBXSXSXBXSXSXSXSXSXSXBXSXSX",
"SXSXSXSXSXSXSXSXSXSXSXSXSXSXSXSXBXBXvXbXkXgXtXiXeXiXiXeXeXtXtXiXuXyXiXaXrXyXyXyXrXlXcXSXSXDXBXBXSXSXSXSXSXSXSXSXSXSXSXSXSXSXSXSX",
"SXSXBXAXSXSXSXSXSXSXSXSXSXBXSXSXHXGXBXVXAXAXvXHXNXVXSXSXvXnXnXFXCXBXDXBXSXMXSXZXBXCXcXSXDXSXBXCXSXSXSXSXSXSXSXSXSXBXSXSXSXSXSXSX",
"SXSXSXBXSXSXSXSXSXSXSXSXSXSXSXSXMXAXMXBXBXDXBXvXAXSXSXSXSXSXFXSXGXMXMXvXSXGXmXvXVXVXAXSXSXSXSXSXSXBXSXSXSXSXSXSXSXSXSXSXSXSXSXSX",
"SXSXSXSXSXSXBXSXSXSXSXSXAXSXBXSXDXZXnXGXBXBXAXDXSXBXSXSXSXMXVXBXMXVXNXAXZXSXVXVXnXZXBXBXnXFXDXSXSXSXSXSXBXSXSXSXSXSXSXSXSXBXAXBX",
"SXSXSXSXSXSXSXSXSXSXSXSXSXSXSXSXSXSXSXSXSXSXSXSXSXSXSXSXBXSXSXSXSXSXSXSXSXSXSXBXBXSXSXSXSXSXSXSXSXSXBXSXSXBXSXSXSXSXSXSXSXBXAXBX",
"BXSXSXSXSXSXSXSXSXSXSXSXSXSXSXSXSXSXBXSXSXSXSXSXSXBXSXSXSXSXSXSXSXSXSXSXSXSXSXSXSXSXSXSXSXSXSXSXSXSXSXSXSXSXSXSXSXSXSXSXSXSXSXSX",
"AXBXSXSXSXSXSXSXSXSXSXBXSXSXBXAXSXSXSXBXSXSXSXBXSXSXSXSXSXSXSXSXSXBXSXSXSXSXSXSXSXSXSXSXSXSXBXSXSXSXSXSXSXSXSXSXSXSXSXSXSXSXSXSX",
"SXSXSXSXSXBXSXBXSXSXSXSXSXSXSXBXSXSXSXAXSXSXSXSXSXSXSXSXSXSXSXSXSXSXSXSXSXSXSXSXSXSXSXSXSXSXAXBXSXSXSXSXSXSXSXSXSXBXSXSXSXSXSXSX",
"SXSXSXSXSXSXSXSXSXSXSXSXSXSXSXSXSXSXSXBXSXSXSXSXSXSXSXSXSXSXBXSXSXSXSXSXSXBXSXSXSXSXBXSXSXSXSXSXSXSXBXDXSXBXSXSXSXSXSXSXSXSXSXSX",
"SXSXSXSXSXSXSXSXSXSXSXBXSXSXSXBXSXSXSXSXSXSXSXBXSXSXAXBXSXSXAXBXSXSXSXSXSXSXSXSXSXSXSXSXSXSXSXSXSXSXSXBXBXAXSXSXSXSXSXSXBXSXSXSX",
"SXSXSXBXSXSXBXSXSXSXSXSXSXSXSXSXSXSXSXBXSXSXSXSXSXSXBXSXSXSXSXSXSXSXSXSXSXSXSXSXSXSXSXSXSXSXSXSXSXSXSXSXSXSXSXSXSXBXSXSXSXSXSXSX",
"SXSXSXSXSXBXAXSXSXSXSXSXSXSXSXSXSXSXSXSXSXSXSXSXSXSXSXSXSXSXSXSXSXBXBXSXSXSXSXSXSXSXSXBXAXBXBXSXSXSXSXSXSXSXSXSXSXSXSXSXBXSXSXSX"
};
