/* XPM */
static char *wall1694784391[] = {
/* columns rows colors chars-per-pixel */
"46 64 203 2 ",
"   c None",
".  c #2B0B19",
"X  c #2A122D",
"o  c #2F182F",
"O  c #351E2E",
"+  c #371931",
"@  c #281C33",
"#  c #3E2F3C",
"$  c #332639",
"%  c #2E223A",
"&  c #421633",
"*  c #451D34",
"=  c #461C39",
"-  c #571E3A",
";  c #432C35",
":  c #4A2737",
">  c #54223B",
",  c #5A213C",
"<  c #552D3B",
"1  c #4D333B",
"2  c #47303D",
"3  c #53333B",
"4  c #5B343E",
"5  c #5B3B3D",
"6  c #56383D",
"7  c #6A2537",
"8  c #782639",
"9  c #6B1F37",
"0  c #3D1F60",
"q  c #38256A",
"w  c #392475",
"e  c #36297E",
"r  c #5E3840",
"t  c #5E3740",
"y  c #493B44",
"u  c #772C45",
"i  c #6A3C44",
"p  c #663543",
"a  c #723D4A",
"s  c #523D6A",
"d  c #5B346B",
"f  c #5A397A",
"g  c #4F3B6C",
"h  c #643963",
"j  c #5A4346",
"k  c #5B4448",
"l  c #564346",
"z  c #4F4249",
"x  c #6D4446",
"c  c #6E4548",
"v  c #7D464F",
"b  c #714A49",
"n  c #78454D",
"m  c #7B534D",
"M  c #7E4850",
"N  c #6B5455",
"B  c #755B5A",
"V  c #654F51",
"C  c #56416A",
"Z  c #584368",
"A  c #644A66",
"S  c #64516A",
"D  c #735974",
"F  c #7A6461",
"G  c #7F6965",
"H  c #7B6665",
"J  c #7D6575",
"K  c #872D3B",
"L  c #D6373F",
"P  c #C6343F",
"I  c #972E43",
"U  c #8F3145",
"Y  c #B53443",
"T  c #AB3E46",
"R  c #C83541",
"E  c #D43A40",
"W  c #844D52",
"Q  c #8C5655",
"!  c #885753",
"~  c #895B54",
"^  c #BC4344",
"/  c #94605B",
"(  c #9A655F",
")  c #816A66",
"_  c #866867",
"`  c #9D6760",
"'  c #9E6860",
"]  c #877470",
"[  c #8A7672",
"{  c #8C7B75",
"}  c #917B74",
"|  c #8C776C",
" . c #A26C61",
".. c #AA7563",
"X. c #B27D66",
"o. c #A26E5E",
"O. c #96816C",
"+. c #99866F",
"@. c #94837B",
"#. c #9B8879",
"$. c #B78167",
"%. c #B88267",
"&. c #A89777",
"*. c #352A82",
"=. c #302F8E",
"-. c #27369D",
";. c #28359C",
":. c #2D3495",
">. c #303090",
",. c #273DA2",
"<. c #233FAB",
"1. c #2637A1",
"2. c #573A81",
"3. c #573C85",
"4. c #1C4BBC",
"5. c #1F45B4",
"6. c #1F56BE",
"7. c #2344AD",
"8. c #2943A9",
"9. c #224BB3",
"0. c #2247B5",
"q. c #2152BA",
"w. c #2F52AE",
"e. c #4D4585",
"r. c #49438A",
"t. c #524782",
"y. c #504D9C",
"u. c #514DAD",
"i. c #524CA7",
"p. c #4D4EAC",
"a. c #164DC3",
"s. c #184CC1",
"d. c #0E56CD",
"f. c #0F59CF",
"g. c #1C55C2",
"h. c #1D5AC3",
"j. c #1253CA",
"k. c #1A5ECA",
"l. c #1457C9",
"z. c #025CD6",
"x. c #0C5DD3",
"c. c #025AD6",
"v. c #004AC4",
"b. c #1961CD",
"n. c #0264DB",
"m. c #006CDD",
"M. c #0A65D9",
"N. c #1665D2",
"B. c #126AD4",
"V. c #0074DE",
"C. c #1475D9",
"Z. c #2E6DCA",
"A. c #006DE1",
"S. c #0072E4",
"D. c #007BE2",
"F. c #0176E9",
"G. c #0079EC",
"H. c #0C72E3",
"J. c #2576E1",
"K. c #887FAA",
"L. c #188BD9",
"P. c #0084E5",
"I. c #0089E7",
"U. c #0084EC",
"Y. c #008CEA",
"T. c #0093EB",
"R. c #0099EE",
"E. c #008FF0",
"W. c #0093F2",
"Q. c #00A6F6",
"!. c #00AAF7",
"~. c #00ADF9",
"^. c #00A7F8",
"/. c #00B2FB",
"(. c #9C8A82",
"). c #9F9187",
"_. c #A48D86",
"`. c #A68F88",
"'. c #A69189",
"]. c #A9938B",
"[. c #AC998F",
"{. c #AC9B91",
"}. c #A79E93",
"|. c #B7A69A",
" X c #BAAB9E",
".X c #B3A298",
"XX c #BCADA0",
"oX c #BFB1A4",
"OX c #C1B3A5",
"+X c #C3B6A8",
"@X c #C6B9AA",
"#X c #CABEAE",
"$X c #C7BAAC",
"%X c #CCC1B1",
"&X c #D1C6B6",
"*X c #D4C9B9",
"=X c #999EC1",
"-X c #DED4C4",
";X c #E5DBCA",
":X c #E3D9C9",
">X c #EEE4D3",
",X c #F4EAD9",
"<X c #F2E8D7",
/* pixels */
"                                                                                            ",
"                                                                                            ",
"                                                                                            ",
"                                                                                            ",
"                                                                                            ",
"                                        ( ' ' W ' (                                         ",
"                                        '  .' W '  .                                        ",
"                [.,X,X,X,X,X,X,X      h W ( ' ( ' ( f                                       ",
"              N +X@.] ] ] ] ] @XK.  w.3.W / ( ' ..' u.D.                                    ",
"              N oXF V % V $ % .X_.w.F.f v ( ' ' X.' u./.V.                                  ",
"              N oX:X-X-X-X-X-X;X#.J.F.2.W ( ( ' ` ` u././.V.                                ",
"              N } } B H } { F { } J.s.f ( ( ( ..` ` y.S././.D.                              ",
"                oX}.@.{ }.}.(.}.=Xq.H.2.` ' ' ..` ` u.Q.S./.I.D.                            ",
"                  B F F B F F N j.H.F.3.` X.' $.' ` u./.!.S.I./.V.                          ",
"                  @X+X@X{ #X{.} H.G.A.d ` X.` X.' ' 3.W./.Q.c././.D.                        ",
"                  (.(.] F (.{.} F.n.k.3.` ..` ' ' ' u.I.R.~.Q.S././.P.                      ",
"                  $X@X%X%XXX'.} M.g.G.3. .$.X.` ` ` u./.U.W./.m.D.~.I.Z.                    ",
"                  XXXXoXoXoX_.C q.G.G.f  .X.X.X.' ` i.~./.P.W.D.~.S.I./.V.                  ",
"                r.oX+X).(.(.s g.G.F.4.f ` X...$.X.` i.A.~./.I.D./.!.c././.D.                ",
"              h.Z.#X%X+X] s h.h.G.4.H.2.` ' X.$.X.` u.~.A.~.I.I.T./.Q.S././.I.              ",
"            q.b.Z.} B B Z h.G.g.s.F.G.2.` ..X.$.X.` u./.~.S.D./.I.W./.n.S.~.T.D.            ",
"          9.G.b.w.N N d q.G.F.,.F.G.z.d ` X.$.$. .` 3.E././.z.~./.P.W.V.~.S.I./.D.          ",
"        q.G.G.>.q $ $ 6.G.G.0.F.G.M.N.2.`  .$.$. .` u.W.Y./.~.m.~./.I.V./.!.c././.D.        ",
"      h.G.F.4.w q $ h.k.F.4.7.G.x.N.G.3. . . . . . .u./.T.E./.m.m.~.T.Y.W./.Q.A././.I.      ",
"    G.b.F.s.,.w w q.G.h.s.F.q.M.k.G.F.f ` X.....X.` y.Q./.Y.Y.D./.A.P./.I.W./.n.S.~.T./.    ",
"  G.G.b.s.F.9.w h.G.G.,.G.G.9.h.G.F.4.2.W ` X.X.` W u.A.!./.I.D././.c.~./.P.W.V.~.S.Y././.  ",
"  G.F.1.F.G.9.h.G.F.5.F.G.z.N.h.S.5.F.e t n W W v t <.~.m.!.I.R.U./.~.A.~./.Y.V./.~.c.~./.  ",
"  G.4.H.G.n.k.k.F.4.7.G.x.N.G.4.4.F.F.e ; ; t r ; ; 8./.~.S.S./.R.Y./.m.m.!.T.Y.E./.!.A.~.  ",
"  M.,.G.M.k.G.h.s.F.9.x.b.G.F.7.G.G.f.w 3 v t t v 3 :.U././.m.Q./.T.Y.V./.S.I.~.I.W./.M.E.  ",
"  G.9.n.h.G.F.1.G.G.9.k.G.F.<.G.G.d.*.0 3 1 ; 2 1 1 e 5.G././.n.!./.Y.S./.~.z.~./.I.W.V./.  ",
"G.G.7.k.G.F.5.F.G.x.B.k.F.0.9.G.d.*.w s = = + = = = e.-.7.G./.V.m.^.Y.R.U./.~.m.~./.Y.m././.",
"G.M.>.N.F.4.7.G.x.N.G.g.4.F.q.d.*.w s S s.a.a.a.a.s.A e.-.7.U.D./.S.D./.R.U./.m.m.~.L.4.E./.",
"M.>.w k.s.F.0.x.k.G.S.7.G.G.9.w q g S l.U.W.n.n.W.U.f.S e.;.;.V././.m.Q./.T.I.V./.A.L.;.4.E.",
">.w w 8.G.G.9.b.G.F.7.G.G.d.*.w g S C.m.1.,.1.-.,.1.m.C.A r.;.<.D././.n.Q./.T.m././.l.;.-.a.",
">.e :.F.G.x.B.b.F.5.9.G.d.*.w s G y.q.-.j.j.j.j.j.j.-.w.y.F e.;.<.G./.V.m.Q.T.R.U././.a.1.a.",
"  N.7.G.f.N.G.g.4.F.9.j.*.w s @.*Xu.4.y.l i i i 5 j y.v.K.XX) t.-.<.U.S./.S.D./.R.I./.n.R.  ",
"F.G.9.x.N.G.A.7.G.G.9.w w s { %X*XXX+.x M v i x W v i @.|.&XOX) e.;.;.m././.m.Q./.R.U.V././.",
"G.G.7.b.G.S.<.G.G.j.e w s [ %X%X%X%X{.x ( 3 & & 4 ( x [.#X&X#X+XH r.-.<.G.~./.n.Q./.T.m./.~.",
"G.x.*.h.S.9.9.G.j.e w s { %X%X%X%X%X) o./ * i 7 * / ( _ #X#X#X&X+X) t.-.<.D./.V.V.Q.L.7.U./.",
"x.*.w q.4.G.9.j.*.w Z @.%X#X|.OX;X-X/ ( / v i i a / ' _ :X:XOX|.#X+X) t.;.7.G.V./.S.C.;.5.U.",
">.g w 8.G.G.7.w w s @.%X%X%XXXoX;X;XoX! o.~ 5 i ~ ' ~ OX:X:XOX X%X%X+X) e.-.;.m.~./.B.-.;.4.",
"-.-.1.G.G.j.*.w g { %X%X*X<X;X<X<X&X.XB ( ' X.X.' / B .X&X<X,X;X>X*X%X+XG e.;.<.D.~./.c.c.c.",
"      G.l.*.w Z } %X%X#X%X&X&X&X&X%X@X@XB 5 5 5 x B @X@X#X&X&X&X&X%X%X%X@X) t.;.<.S./.      ",
"      j.e w Z @.%X%X%X#X@X].'. X'.'._.oX'.F a a F '.oX_.`.'. X`.'.#X%X%X%X+X_ t.;.7.G.      ",
"      . : 4 ) OXXXXX{.'.XXOXOXOXXXOXOX| ! b 6 m c b [ +XoXoXoXoXOXOX'.[.OXOX|.) 4 : .       ",
"      X x ( ( ( ` ` ` ` ` ( ( ( ( ( m o.X.X.x $...W m b ` ` ` ` ( ( ( ( ( ( ( ` ( x X       ",
"        c 5 3 ( v / W v 3 / / v M t X.' W W 6 / v v p W 3 M n ( / 3 v W / v ( 3 6 x         ",
"        O b b 4 4 4 4 4 b c 4 4 t 3 / a i & & + & * a c 2 t 4 4 x b 4 4 4 4 4 b b O         ",
"      X X X * k '.|.|.|.|.|.|.].) 1 Q + = , - = , & & i 1 _ ].|.|.|.|.|.|.'.r : o X X       ",
"      X X ; M r %X%X%X%X%X%X%XoX[.j ( & u u 7 7 u u & / k [.oX%X%X%X%X%X%X%Xz v : X X       ",
"      X X 5 Q k }.#X#X%X%X%X%X%X@Xj n , L Y 7 7 Y I , v k @X%X%X%X%X%X%X#X[.j Q 6 X X       ",
"      X X 5 Q j oXoX%X%X%X%X%X%X@Xj v , R & * * = P - W k +X%X#X%X%X%X%XoXoXj Q 5 X X       ",
"          r ~ j XX%X%X%X&X-X,X-X@Xk Q , P K + * K P > Q k @X-X<X-X%X%X%X%XXXj Q 5           ",
"        X r ~ k .X%X%X#X>X<X<X<X@Xj < , P K ^ ^ 8 L , < j @X<X,X,X>X%X%X%X.Xj Q 5 X         ",
"      X X 6 W j @X#X%X%X#X&X&X:X@Xk W , - U K I L E > M j @X:X*X&X%X%X%X#X@Xj ! 3 X X       ",
"      X X 5 ~ k '.'.+X_.'.].%X#X@Xk o., I T P L L E > M k @X#X%X'.`.`.+X_.'.j Q 5 X X       ",
"      X X 3 W j OXOXOXoX#XOX+XoX Xk ! , L Y L L E Y , ! k XXoX+X+X#XoXoX+XoXj W < X X       ",
"        X 1 v j _._._.'. X_.}.} F 3 v , U 7 Y Y R R , v 1 F } [._. X'.(.(._.l v 1 X         ",
"          o ; ; # # # z # # # y y 1 W : > * > > > > = v 2 z y # # # z 2 # # ; ; o           ",
"                                o F A #.} #.+.| [ D } Z G O                                 ",
"                                O D | | D J +.&.&.O.+.&.D O                                 ",
"                                  1 #.+.} O.O.O.O.O.#.@.2                                   ",
"                                  $ S D J J J J J ] D A O                                   ",
"                                    O O O O O O + O O O                                     "
};
